<svg width="17" height="19" viewBox="0 0 17 19" fill="none" xmlns="http://www.w3.org/2000/svg">
<path d="M1 4.33301H2.66667H16" stroke="#252450" stroke-width="1.5" stroke-linecap="round" stroke-linejoin="round"/>
<path d="M5.16797 4.33333V2.66667C5.16797 2.22464 5.34356 1.80072 5.65612 1.48816C5.96869 1.17559 6.39261 1 6.83464 1H10.168C10.61 1 11.0339 1.17559 11.3465 1.48816C11.659 1.80072 11.8346 2.22464 11.8346 2.66667V4.33333M14.3346 4.33333V16C14.3346 16.442 14.159 16.8659 13.8465 17.1785C13.5339 17.4911 13.11 17.6667 12.668 17.6667H4.33464C3.89261 17.6667 3.46868 17.4911 3.15612 17.1785C2.84356 16.8659 2.66797 16.442 2.66797 16V4.33333H14.3346Z" stroke="#252450" stroke-width="1.5" stroke-linecap="round" stroke-linejoin="round"/>
<path d="M6.83203 8.49902V13.499" stroke="#252450" stroke-width="1.5" stroke-linecap="round" stroke-linejoin="round"/>
<path d="M10.166 8.49902V13.499" stroke="#252450" stroke-width="1.5" stroke-linecap="round" stroke-linejoin="round"/>
</svg>
