<svg width="18" height="18" viewBox="0 0 18 18" fill="none" xmlns="http://www.w3.org/2000/svg">
<path d="M8.15659 2.68652H2.59035C2.16857 2.68652 1.76405 2.85408 1.4658 3.15233C1.16755 3.45058 1 3.85509 1 4.27688V15.4093C1 15.8311 1.16755 16.2356 1.4658 16.5339C1.76405 16.8321 2.16857 16.9997 2.59035 16.9997H13.7228C14.1446 16.9997 14.5491 16.8321 14.8474 16.5339C15.1456 16.2356 15.3132 15.8311 15.3132 15.4093V9.84311" stroke="#252450" stroke-width="1.5" stroke-linecap="round" stroke-linejoin="round"/>
<path d="M14.1208 1.49406C14.4372 1.17772 14.8662 1 15.3136 1C15.761 1 16.19 1.17772 16.5064 1.49406C16.8227 1.8104 17.0004 2.23945 17.0004 2.68682C17.0004 3.1342 16.8227 3.56325 16.5064 3.87959L8.95219 11.4338L5.77148 12.2289L6.56666 9.04824L14.1208 1.49406Z" stroke="#252450" stroke-width="1.5" stroke-linecap="round" stroke-linejoin="round"/>
</svg>
