<svg width="275" height="344" viewBox="0 0 275 344" fill="none" xmlns="http://www.w3.org/2000/svg">
<rect width="275" height="344" rx="8" fill="white"/>
<rect x="24.5" y="24.5" width="31" height="31" rx="7.5" fill="white"/>
<path d="M42 44L38 40L42 36" stroke="black" stroke-width="1.33333" stroke-linecap="round" stroke-linejoin="round"/>
<rect x="24.5" y="24.5" width="31" height="31" rx="7.5" stroke="#DDDDDD"/>
<path d="M104.588 32.4545H107.628V42.5966C107.628 43.5341 107.417 44.3485 106.996 45.0398C106.579 45.7311 105.999 46.2637 105.256 46.6378C104.512 47.0118 103.648 47.1989 102.663 47.1989C101.787 47.1989 100.992 47.045 100.277 46.7372C99.5668 46.4247 99.0033 45.9512 98.5866 45.3168C98.17 44.6776 97.964 43.875 97.9688 42.9091H101.03C101.039 43.2926 101.117 43.6217 101.264 43.8963C101.416 44.1662 101.622 44.3745 101.882 44.5213C102.147 44.6634 102.46 44.7344 102.82 44.7344C103.198 44.7344 103.518 44.6539 103.778 44.4929C104.044 44.3272 104.245 44.0857 104.382 43.7685C104.519 43.4512 104.588 43.0606 104.588 42.5966V32.4545ZM113.224 47.206C112.528 47.206 111.908 47.0852 111.364 46.8438C110.819 46.5975 110.388 46.2353 110.071 45.7571C109.759 45.2741 109.602 44.6728 109.602 43.9531C109.602 43.3471 109.714 42.8381 109.936 42.4261C110.159 42.0142 110.462 41.6828 110.845 41.4318C111.229 41.1809 111.664 40.9915 112.152 40.8636C112.644 40.7358 113.161 40.6458 113.7 40.5938C114.335 40.5275 114.846 40.4659 115.234 40.4091C115.623 40.3475 115.904 40.2576 116.08 40.1392C116.255 40.0208 116.342 39.8456 116.342 39.6136V39.571C116.342 39.1212 116.2 38.7732 115.916 38.527C115.637 38.2808 115.239 38.1577 114.723 38.1577C114.179 38.1577 113.745 38.2784 113.423 38.5199C113.101 38.7566 112.888 39.0549 112.784 39.4148L109.986 39.1875C110.128 38.5246 110.407 37.9517 110.824 37.4688C111.241 36.9811 111.778 36.607 112.436 36.3466C113.099 36.0814 113.866 35.9489 114.737 35.9489C115.343 35.9489 115.923 36.0199 116.477 36.1619C117.036 36.304 117.531 36.5241 117.962 36.8224C118.397 37.1207 118.741 37.5043 118.991 37.973C119.242 38.437 119.368 38.9934 119.368 39.642V47H116.499V45.4872H116.413C116.238 45.8281 116.004 46.1288 115.71 46.3892C115.417 46.6449 115.064 46.8461 114.652 46.9929C114.24 47.1349 113.764 47.206 113.224 47.206ZM114.091 45.1179C114.536 45.1179 114.929 45.0303 115.27 44.8551C115.611 44.6752 115.878 44.4337 116.072 44.1307C116.267 43.8277 116.364 43.4844 116.364 43.1009V41.9432C116.269 42.0047 116.139 42.0616 115.973 42.1136C115.812 42.161 115.63 42.206 115.426 42.2486C115.223 42.2865 115.019 42.322 114.815 42.3551C114.612 42.3835 114.427 42.4096 114.261 42.4332C113.906 42.4853 113.596 42.5682 113.331 42.6818C113.066 42.7955 112.86 42.9493 112.713 43.1435C112.566 43.3329 112.493 43.5696 112.493 43.8537C112.493 44.2656 112.642 44.5805 112.94 44.7983C113.243 45.0114 113.627 45.1179 114.091 45.1179ZM124.741 40.6932V47H121.715V36.0909H124.599V38.0156H124.727C124.968 37.3812 125.373 36.8793 125.941 36.5099C126.509 36.1359 127.198 35.9489 128.008 35.9489C128.765 35.9489 129.426 36.1146 129.989 36.446C130.553 36.7775 130.991 37.2509 131.303 37.8665C131.616 38.4773 131.772 39.2064 131.772 40.054V47H128.746V40.5938C128.751 39.9261 128.581 39.4053 128.235 39.0312C127.889 38.6525 127.414 38.4631 126.808 38.4631C126.4 38.4631 126.04 38.5507 125.728 38.7259C125.42 38.901 125.179 39.1567 125.004 39.4929C124.833 39.8243 124.746 40.2244 124.741 40.6932ZM141.152 42.3551V36.0909H144.178V47H141.273V45.0185H141.159C140.913 45.6577 140.504 46.1714 139.931 46.5597C139.363 46.9479 138.669 47.142 137.85 47.142C137.121 47.142 136.479 46.9763 135.925 46.6449C135.371 46.3134 134.938 45.8423 134.625 45.2315C134.318 44.6207 134.161 43.8892 134.157 43.0369V36.0909H137.182V42.4972C137.187 43.1411 137.36 43.6501 137.701 44.0241C138.042 44.3982 138.498 44.5852 139.071 44.5852C139.436 44.5852 139.777 44.5024 140.094 44.3366C140.411 44.1662 140.667 43.9152 140.861 43.5838C141.06 43.2524 141.157 42.8428 141.152 42.3551ZM149.709 47.206C149.013 47.206 148.393 47.0852 147.848 46.8438C147.304 46.5975 146.873 46.2353 146.555 45.7571C146.243 45.2741 146.087 44.6728 146.087 43.9531C146.087 43.3471 146.198 42.8381 146.42 42.4261C146.643 42.0142 146.946 41.6828 147.33 41.4318C147.713 41.1809 148.149 40.9915 148.636 40.8636C149.129 40.7358 149.645 40.6458 150.185 40.5938C150.819 40.5275 151.33 40.4659 151.719 40.4091C152.107 40.3475 152.389 40.2576 152.564 40.1392C152.739 40.0208 152.827 39.8456 152.827 39.6136V39.571C152.827 39.1212 152.685 38.7732 152.401 38.527C152.121 38.2808 151.723 38.1577 151.207 38.1577C150.663 38.1577 150.23 38.2784 149.908 38.5199C149.586 38.7566 149.373 39.0549 149.268 39.4148L146.47 39.1875C146.612 38.5246 146.892 37.9517 147.308 37.4688C147.725 36.9811 148.262 36.607 148.92 36.3466C149.583 36.0814 150.35 35.9489 151.222 35.9489C151.828 35.9489 152.408 36.0199 152.962 36.1619C153.52 36.304 154.015 36.5241 154.446 36.8224C154.882 37.1207 155.225 37.5043 155.476 37.973C155.727 38.437 155.852 38.9934 155.852 39.642V47H152.983V45.4872H152.898C152.723 45.8281 152.488 46.1288 152.195 46.3892C151.901 46.6449 151.548 46.8461 151.136 46.9929C150.724 47.1349 150.249 47.206 149.709 47.206ZM150.575 45.1179C151.02 45.1179 151.413 45.0303 151.754 44.8551C152.095 44.6752 152.363 44.4337 152.557 44.1307C152.751 43.8277 152.848 43.4844 152.848 43.1009V41.9432C152.753 42.0047 152.623 42.0616 152.457 42.1136C152.296 42.161 152.114 42.206 151.911 42.2486C151.707 42.2865 151.503 42.322 151.3 42.3551C151.096 42.3835 150.911 42.4096 150.746 42.4332C150.391 42.4853 150.08 42.5682 149.815 42.6818C149.55 42.7955 149.344 42.9493 149.197 43.1435C149.051 43.3329 148.977 43.5696 148.977 43.8537C148.977 44.2656 149.126 44.5805 149.425 44.7983C149.728 45.0114 150.111 45.1179 150.575 45.1179ZM158.2 47V36.0909H161.133V37.9943H161.246C161.445 37.3172 161.779 36.8059 162.248 36.4602C162.717 36.1098 163.256 35.9347 163.867 35.9347C164.019 35.9347 164.182 35.9441 164.357 35.9631C164.532 35.982 164.686 36.008 164.819 36.0412V38.7259C164.677 38.6832 164.48 38.6454 164.229 38.6122C163.978 38.5791 163.749 38.5625 163.54 38.5625C163.095 38.5625 162.698 38.6596 162.347 38.8537C162.002 39.0431 161.727 39.3082 161.523 39.6491C161.325 39.9901 161.225 40.383 161.225 40.8281V47H158.2ZM168.583 51.0909C168.2 51.0909 167.84 51.0601 167.504 50.9986C167.172 50.9418 166.897 50.8684 166.68 50.7784L167.362 48.5199C167.717 48.6288 168.036 48.688 168.32 48.6974C168.609 48.7069 168.858 48.6406 169.066 48.4986C169.279 48.3565 169.452 48.1151 169.585 47.7741L169.762 47.3125L165.849 36.0909H169.031L171.289 44.1023H171.403L173.683 36.0909H176.886L172.646 48.179C172.442 48.7661 172.165 49.2775 171.815 49.7131C171.469 50.1534 171.031 50.492 170.501 50.7287C169.97 50.9702 169.331 51.0909 168.583 51.0909Z" fill="black"/>
<rect x="219.5" y="24.5" width="31" height="31" rx="7.5" fill="white"/>
<path d="M233 44L237 40L233 36" stroke="black" stroke-width="1.33333" stroke-linecap="round" stroke-linejoin="round"/>
<rect x="219.5" y="24.5" width="31" height="31" rx="7.5" stroke="#DDDDDD"/>
<path d="M23.3317 85.5455H25.0629L28.0728 92.8949H28.1836L31.1935 85.5455H32.9247V95H31.5675V88.1584H31.4798L28.6914 94.9862H27.565L24.7766 88.1538H24.6889V95H23.3317V85.5455ZM37.8747 95.1431C37.21 95.1431 36.6298 94.9908 36.1343 94.6861C35.6388 94.3814 35.2541 93.9551 34.9802 93.4073C34.7063 92.8595 34.5693 92.2193 34.5693 91.4869C34.5693 90.7513 34.7063 90.1081 34.9802 89.5572C35.2541 89.0063 35.6388 88.5785 36.1343 88.2738C36.6298 87.9691 37.21 87.8168 37.8747 87.8168C38.5395 87.8168 39.1196 87.9691 39.6151 88.2738C40.1106 88.5785 40.4954 89.0063 40.7693 89.5572C41.0432 90.1081 41.1801 90.7513 41.1801 91.4869C41.1801 92.2193 41.0432 92.8595 40.7693 93.4073C40.4954 93.9551 40.1106 94.3814 39.6151 94.6861C39.1196 94.9908 38.5395 95.1431 37.8747 95.1431ZM37.8794 93.9844C38.3102 93.9844 38.6672 93.8705 38.9504 93.6428C39.2335 93.415 39.4428 93.1119 39.5782 92.7333C39.7167 92.3548 39.786 91.9377 39.786 91.4822C39.786 91.0298 39.7167 90.6143 39.5782 90.2358C39.4428 89.8542 39.2335 89.5479 38.9504 89.3171C38.6672 89.0863 38.3102 88.9709 37.8794 88.9709C37.4454 88.9709 37.0853 89.0863 36.7991 89.3171C36.516 89.5479 36.3051 89.8542 36.1666 90.2358C36.0312 90.6143 35.9635 91.0298 35.9635 91.4822C35.9635 91.9377 36.0312 92.3548 36.1666 92.7333C36.3051 93.1119 36.516 93.415 36.7991 93.6428C37.0853 93.8705 37.4454 93.9844 37.8794 93.9844ZM44.1012 90.7898V95H42.7209V87.9091H44.0458V89.0632H44.1335C44.2966 88.6877 44.5521 88.3861 44.8999 88.1584C45.2507 87.9306 45.6924 87.8168 46.2248 87.8168C46.708 87.8168 47.1312 87.9183 47.4943 88.1214C47.8575 88.3215 48.1391 88.62 48.3391 89.017C48.5392 89.4141 48.6392 89.9049 48.6392 90.4897V95H47.2589V90.6559C47.2589 90.1419 47.125 89.7403 46.8572 89.451C46.5895 89.1586 46.2217 89.0124 45.7539 89.0124C45.4338 89.0124 45.1491 89.0817 44.8999 89.2202C44.6536 89.3587 44.4582 89.5618 44.3136 89.8295C44.172 90.0942 44.1012 90.4143 44.1012 90.7898Z" fill="#9C9D9F"/>
<path d="M58.9255 86.7734V85.5455H66.2426V86.7734H63.2927V95H61.8708V86.7734H58.9255ZM71.2757 92.0593V87.9091H72.6606V95H71.3034V93.772H71.2295C71.0664 94.1506 70.8048 94.466 70.4447 94.7184C70.0877 94.9677 69.643 95.0923 69.1106 95.0923C68.6551 95.0923 68.2519 94.9923 67.9011 94.7923C67.5533 94.5891 67.2794 94.2891 67.0793 93.892C66.8824 93.495 66.7839 93.0041 66.7839 92.4194V87.9091H68.1642V92.2532C68.1642 92.7364 68.2981 93.1211 68.5658 93.4073C68.8336 93.6935 69.1814 93.8366 69.6092 93.8366C69.8677 93.8366 70.1247 93.772 70.3801 93.6428C70.6386 93.5135 70.8525 93.3181 71.0218 93.0565C71.1941 92.7949 71.2788 92.4625 71.2757 92.0593ZM77.5714 95.1431C76.8728 95.1431 76.2711 94.9938 75.7664 94.6953C75.2647 94.3937 74.8769 93.9705 74.603 93.4258C74.3322 92.878 74.1968 92.2363 74.1968 91.5007C74.1968 90.7744 74.3322 90.1342 74.603 89.5803C74.8769 89.0263 75.2586 88.5939 75.7479 88.283C76.2403 87.9722 76.8159 87.8168 77.4745 87.8168C77.8746 87.8168 78.2624 87.8829 78.6378 88.0153C79.0133 88.1476 79.3503 88.3554 79.6488 88.6385C79.9474 88.9216 80.1828 89.2894 80.3552 89.7418C80.5275 90.1912 80.6137 90.7375 80.6137 91.3807V91.87H74.977V90.8359H79.2611C79.2611 90.4728 79.1872 90.1512 79.0395 89.8711C78.8917 89.5879 78.684 89.3648 78.4162 89.2017C78.1516 89.0386 77.8407 88.957 77.4837 88.957C77.0959 88.957 76.7574 89.0524 76.4681 89.2433C76.1819 89.431 75.9603 89.6772 75.8033 89.9819C75.6494 90.2835 75.5725 90.6113 75.5725 90.9652V91.7731C75.5725 92.247 75.6556 92.6502 75.8218 92.9826C75.991 93.315 76.2265 93.5689 76.5281 93.7443C76.8297 93.9167 77.1821 94.0028 77.5853 94.0028C77.8469 94.0028 78.0854 93.9659 78.3008 93.892C78.5163 93.8151 78.7025 93.7012 78.8594 93.5504C79.0164 93.3996 79.1364 93.2134 79.2195 92.9918L80.526 93.2273C80.4213 93.612 80.2336 93.949 79.9628 94.2383C79.695 94.5245 79.358 94.7476 78.9517 94.9077C78.5486 95.0646 78.0885 95.1431 77.5714 95.1431Z" fill="#9C9D9F"/>
<path d="M92.6438 95L90.0217 85.5455H91.522L93.364 92.8672H93.4517L95.3675 85.5455H96.854L98.7699 92.8718H98.8576L100.695 85.5455H102.2L99.5732 95H98.1374L96.1477 87.9183H96.0739L94.0842 95H92.6438ZM105.748 95.1431C105.049 95.1431 104.447 94.9938 103.943 94.6953C103.441 94.3937 103.053 93.9705 102.779 93.4258C102.508 92.878 102.373 92.2363 102.373 91.5007C102.373 90.7744 102.508 90.1342 102.779 89.5803C103.053 89.0263 103.435 88.5939 103.924 88.283C104.417 87.9722 104.992 87.8168 105.651 87.8168C106.051 87.8168 106.439 87.8829 106.814 88.0153C107.19 88.1476 107.527 88.3554 107.825 88.6385C108.124 88.9216 108.359 89.2894 108.531 89.7418C108.704 90.1912 108.79 90.7375 108.79 91.3807V91.87H103.153V90.8359H107.437C107.437 90.4728 107.363 90.1512 107.216 89.8711C107.068 89.5879 106.86 89.3648 106.593 89.2017C106.328 89.0386 106.017 88.957 105.66 88.957C105.272 88.957 104.934 89.0524 104.644 89.2433C104.358 89.431 104.137 89.6772 103.98 89.9819C103.826 90.2835 103.749 90.6113 103.749 90.9652V91.7731C103.749 92.247 103.832 92.6502 103.998 92.9826C104.167 93.315 104.403 93.5689 104.704 93.7443C105.006 93.9167 105.358 94.0028 105.762 94.0028C106.023 94.0028 106.262 93.9659 106.477 93.892C106.693 93.8151 106.879 93.7012 107.036 93.5504C107.193 93.3996 107.313 93.2134 107.396 92.9918L108.702 93.2273C108.598 93.612 108.41 93.949 108.139 94.2383C107.871 94.5245 107.534 94.7476 107.128 94.9077C106.725 95.0646 106.265 95.1431 105.748 95.1431ZM112.976 95.1385C112.403 95.1385 111.893 94.9923 111.443 94.6999C110.997 94.4045 110.646 93.9844 110.391 93.4396C110.138 92.8918 110.012 92.2347 110.012 91.4684C110.012 90.7021 110.14 90.0465 110.395 89.5018C110.654 88.957 111.008 88.54 111.457 88.2507C111.906 87.9614 112.416 87.8168 112.985 87.8168C113.425 87.8168 113.779 87.8906 114.047 88.0384C114.318 88.183 114.527 88.3523 114.675 88.5462C114.826 88.7401 114.943 88.9109 115.026 89.0586H115.109V85.5455H116.489V95H115.141V93.8967H115.026C114.943 94.0475 114.823 94.2198 114.666 94.4137C114.512 94.6076 114.299 94.7769 114.028 94.9215C113.758 95.0662 113.407 95.1385 112.976 95.1385ZM113.281 93.9613C113.678 93.9613 114.013 93.8567 114.287 93.6474C114.564 93.435 114.773 93.1411 114.915 92.7656C115.06 92.3902 115.132 91.9531 115.132 91.4545C115.132 90.9621 115.061 90.5312 114.919 90.1619C114.778 89.7926 114.57 89.5049 114.296 89.2987C114.022 89.0924 113.684 88.9893 113.281 88.9893C112.865 88.9893 112.519 89.0971 112.242 89.3125C111.965 89.5279 111.756 89.8219 111.614 90.1942C111.476 90.5666 111.406 90.9867 111.406 91.4545C111.406 91.9285 111.477 92.3548 111.619 92.7333C111.76 93.1119 111.97 93.4119 112.247 93.6335C112.527 93.852 112.871 93.9613 113.281 93.9613Z" fill="#9C9D9F"/>
<path d="M126.063 86.7734V85.5455H133.38V86.7734H130.43V95H129.008V86.7734H126.063ZM136.266 90.7898V95H134.886V85.5455H136.248V89.0632H136.335C136.502 88.6816 136.756 88.3784 137.097 88.1538C137.439 87.9291 137.885 87.8168 138.436 87.8168C138.922 87.8168 139.347 87.9168 139.71 88.1168C140.076 88.3169 140.36 88.6154 140.56 89.0124C140.763 89.4064 140.864 89.8988 140.864 90.4897V95H139.484V90.6559C139.484 90.1358 139.35 89.7326 139.082 89.4464C138.815 89.1571 138.442 89.0124 137.965 89.0124C137.639 89.0124 137.347 89.0817 137.088 89.2202C136.833 89.3587 136.631 89.5618 136.483 89.8295C136.339 90.0942 136.266 90.4143 136.266 90.7898ZM147.198 92.0593V87.9091H148.583V95H147.226V93.772H147.152C146.989 94.1506 146.727 94.466 146.367 94.7184C146.01 94.9677 145.565 95.0923 145.033 95.0923C144.577 95.0923 144.174 94.9923 143.823 94.7923C143.476 94.5891 143.202 94.2891 143.002 93.892C142.805 93.495 142.706 93.0041 142.706 92.4194V87.9091H144.087V92.2532C144.087 92.7364 144.22 93.1211 144.488 93.4073C144.756 93.6935 145.104 93.8366 145.532 93.8366C145.79 93.8366 146.047 93.772 146.302 93.6428C146.561 93.5135 146.775 93.3181 146.944 93.0565C147.117 92.7949 147.201 92.4625 147.198 92.0593Z" fill="#9C9D9F"/>
<path d="M164.517 95V85.5455H170.38V86.7734H165.943V89.6541H169.96V90.8775H165.943V95H164.517ZM171.934 95V87.9091H173.268V89.0355H173.342C173.472 88.6539 173.699 88.3538 174.026 88.1353C174.355 87.9137 174.727 87.8029 175.143 87.8029C175.229 87.8029 175.33 87.806 175.447 87.8121C175.567 87.8183 175.661 87.826 175.729 87.8352V89.1555C175.674 89.1402 175.575 89.1232 175.434 89.1048C175.292 89.0832 175.15 89.0724 175.009 89.0724C174.683 89.0724 174.392 89.1417 174.136 89.2802C173.884 89.4156 173.684 89.6049 173.536 89.848C173.388 90.0881 173.315 90.362 173.315 90.6697V95H171.934ZM176.924 95V87.9091H178.304V95H176.924ZM177.621 86.815C177.381 86.815 177.174 86.735 177.002 86.5749C176.833 86.4118 176.748 86.2179 176.748 85.9933C176.748 85.7655 176.833 85.5716 177.002 85.4116C177.174 85.2485 177.381 85.1669 177.621 85.1669C177.861 85.1669 178.065 85.2485 178.235 85.4116C178.407 85.5716 178.493 85.7655 178.493 85.9933C178.493 86.2179 178.407 86.4118 178.235 86.5749C178.065 86.735 177.861 86.815 177.621 86.815Z" fill="#9C9D9F"/>
<path d="M201.106 88.0291C201.057 87.5921 200.854 87.2536 200.497 87.0135C200.14 86.7704 199.69 86.6488 199.149 86.6488C198.761 86.6488 198.425 86.7103 198.142 86.8335C197.859 86.9535 197.639 87.1197 197.482 87.332C197.328 87.5413 197.251 87.7798 197.251 88.0476C197.251 88.2723 197.304 88.4661 197.408 88.6293C197.516 88.7924 197.656 88.9293 197.828 89.0401C198.004 89.1478 198.191 89.2386 198.391 89.3125C198.592 89.3833 198.784 89.4418 198.969 89.4879L199.892 89.728C200.193 89.8018 200.503 89.9019 200.82 90.0281C201.137 90.1542 201.431 90.3204 201.701 90.5266C201.972 90.7328 202.191 90.9883 202.357 91.293C202.526 91.5977 202.611 91.9624 202.611 92.3871C202.611 92.9226 202.472 93.3981 202.195 93.8136C201.922 94.229 201.523 94.5568 201 94.7969C200.48 95.0369 199.85 95.157 199.112 95.157C198.404 95.157 197.791 95.0446 197.274 94.82C196.757 94.5953 196.353 94.2768 196.06 93.8643C195.768 93.4489 195.606 92.9564 195.575 92.3871H197.007C197.034 92.7287 197.145 93.0134 197.339 93.2411C197.536 93.4658 197.787 93.6335 198.091 93.7443C198.399 93.852 198.736 93.9059 199.102 93.9059C199.506 93.9059 199.864 93.8428 200.178 93.7166C200.495 93.5874 200.744 93.4089 200.926 93.1811C201.107 92.9503 201.198 92.681 201.198 92.3732C201.198 92.0932 201.118 91.8639 200.958 91.6854C200.801 91.5069 200.587 91.3591 200.317 91.2422C200.049 91.1252 199.746 91.0221 199.407 90.9329L198.29 90.6282C197.533 90.422 196.933 90.1188 196.489 89.7188C196.049 89.3187 195.829 88.7893 195.829 88.1307C195.829 87.5859 195.977 87.1104 196.273 86.7042C196.568 86.2979 196.968 85.9825 197.473 85.7578C197.978 85.5301 198.547 85.4162 199.181 85.4162C199.821 85.4162 200.386 85.5285 200.875 85.7532C201.368 85.9779 201.755 86.2872 202.038 86.6811C202.322 87.072 202.469 87.5213 202.482 88.0291H201.106ZM206.268 95.157C205.819 95.157 205.413 95.0739 205.05 94.9077C204.686 94.7384 204.399 94.4937 204.186 94.1737C203.977 93.8536 203.872 93.4612 203.872 92.9964C203.872 92.5964 203.949 92.267 204.103 92.0085C204.257 91.75 204.465 91.5453 204.726 91.3945C204.988 91.2437 205.28 91.1299 205.604 91.0529C205.927 90.976 206.256 90.9175 206.591 90.8775C207.016 90.8282 207.361 90.7882 207.626 90.7575C207.89 90.7236 208.083 90.6697 208.203 90.5959C208.323 90.522 208.383 90.402 208.383 90.2358V90.2035C208.383 89.8003 208.269 89.4879 208.041 89.2663C207.816 89.0447 207.481 88.9339 207.035 88.9339C206.57 88.9339 206.204 89.037 205.936 89.2433C205.671 89.4464 205.488 89.6726 205.387 89.9219L204.089 89.6264C204.243 89.1955 204.468 88.8478 204.763 88.5831C205.062 88.3153 205.405 88.1214 205.793 88.0014C206.181 87.8783 206.588 87.8168 207.016 87.8168C207.299 87.8168 207.599 87.8506 207.916 87.9183C208.236 87.983 208.535 88.103 208.812 88.2784C209.092 88.4538 209.321 88.7047 209.5 89.0309C209.678 89.354 209.768 89.7741 209.768 90.2912V95H208.42V94.0305H208.364C208.275 94.209 208.141 94.3845 207.963 94.5568C207.784 94.7292 207.555 94.8723 207.275 94.9862C206.995 95.1 206.659 95.157 206.268 95.157ZM206.568 94.049C206.95 94.049 207.276 93.9736 207.547 93.8228C207.821 93.672 208.029 93.475 208.17 93.2319C208.315 92.9857 208.387 92.7225 208.387 92.4425V91.5284C208.338 91.5777 208.243 91.6238 208.101 91.6669C207.963 91.7069 207.804 91.7423 207.626 91.7731C207.447 91.8008 207.273 91.8269 207.104 91.8516C206.935 91.8731 206.793 91.8916 206.679 91.907C206.411 91.9408 206.167 91.9978 205.945 92.0778C205.727 92.1578 205.551 92.2732 205.419 92.424C205.29 92.5717 205.225 92.7687 205.225 93.0149C205.225 93.3565 205.351 93.6151 205.604 93.7905C205.856 93.9628 206.178 94.049 206.568 94.049ZM214.916 87.9091V89.017H211.043V87.9091H214.916ZM212.082 86.2102H213.462V92.918C213.462 93.1857 213.502 93.3873 213.582 93.5227C213.662 93.6551 213.765 93.7459 213.891 93.7951C214.021 93.8413 214.161 93.8643 214.311 93.8643C214.422 93.8643 214.519 93.8567 214.602 93.8413C214.685 93.8259 214.75 93.8136 214.796 93.8043L215.045 94.9446C214.965 94.9754 214.852 95.0062 214.704 95.0369C214.556 95.0708 214.371 95.0893 214.15 95.0923C213.787 95.0985 213.448 95.0339 213.134 94.8984C212.82 94.763 212.566 94.5537 212.372 94.2706C212.179 93.9875 212.082 93.632 212.082 93.2042V86.2102Z" fill="#9C9D9F"/>
<path d="M233.332 88.0291C233.283 87.5921 233.08 87.2536 232.723 87.0135C232.366 86.7704 231.916 86.6488 231.375 86.6488C230.987 86.6488 230.651 86.7103 230.368 86.8335C230.085 86.9535 229.865 87.1197 229.708 87.332C229.554 87.5413 229.477 87.7798 229.477 88.0476C229.477 88.2723 229.53 88.4661 229.634 88.6293C229.742 88.7924 229.882 88.9293 230.054 89.0401C230.23 89.1478 230.417 89.2386 230.618 89.3125C230.818 89.3833 231.01 89.4418 231.195 89.4879L232.118 89.728C232.42 89.8018 232.729 89.9019 233.046 90.0281C233.363 90.1542 233.657 90.3204 233.928 90.5266C234.198 90.7328 234.417 90.9883 234.583 91.293C234.752 91.5977 234.837 91.9624 234.837 92.3871C234.837 92.9226 234.699 93.3981 234.422 93.8136C234.148 94.229 233.749 94.5568 233.226 94.7969C232.706 95.0369 232.076 95.157 231.338 95.157C230.63 95.157 230.017 95.0446 229.5 94.82C228.983 94.5953 228.579 94.2768 228.286 93.8643C227.994 93.4489 227.832 92.9564 227.801 92.3871H229.233C229.26 92.7287 229.371 93.0134 229.565 93.2411C229.762 93.4658 230.013 93.6335 230.317 93.7443C230.625 93.852 230.962 93.9059 231.328 93.9059C231.732 93.9059 232.09 93.8428 232.404 93.7166C232.721 93.5874 232.97 93.4089 233.152 93.1811C233.334 92.9503 233.424 92.681 233.424 92.3732C233.424 92.0932 233.344 91.8639 233.184 91.6854C233.027 91.5069 232.813 91.3591 232.543 91.2422C232.275 91.1252 231.972 91.0221 231.633 90.9329L230.516 90.6282C229.759 90.422 229.159 90.1188 228.716 89.7188C228.275 89.3187 228.055 88.7893 228.055 88.1307C228.055 87.5859 228.203 87.1104 228.499 86.7042C228.794 86.2979 229.194 85.9825 229.699 85.7578C230.204 85.5301 230.773 85.4162 231.407 85.4162C232.047 85.4162 232.612 85.5285 233.101 85.7532C233.594 85.9779 233.981 86.2872 234.265 86.6811C234.548 87.072 234.695 87.5213 234.708 88.0291H233.332ZM240.923 92.0593V87.9091H242.308V95H240.95V93.772H240.877C240.713 94.1506 240.452 94.466 240.092 94.7184C239.735 94.9677 239.29 95.0923 238.758 95.0923C238.302 95.0923 237.899 94.9923 237.548 94.7923C237.2 94.5891 236.926 94.2891 236.726 93.892C236.529 93.495 236.431 93.0041 236.431 92.4194V87.9091H237.811V92.2532C237.811 92.7364 237.945 93.1211 238.213 93.4073C238.481 93.6935 238.828 93.8366 239.256 93.8366C239.515 93.8366 239.772 93.772 240.027 93.6428C240.286 93.5135 240.499 93.3181 240.669 93.0565C240.841 92.7949 240.926 92.4625 240.923 92.0593ZM245.543 90.7898V95H244.162V87.9091H245.487V89.0632H245.575C245.738 88.6877 245.993 88.3861 246.341 88.1584C246.692 87.9306 247.134 87.8168 247.666 87.8168C248.149 87.8168 248.573 87.9183 248.936 88.1214C249.299 88.3215 249.58 88.62 249.781 89.017C249.981 89.4141 250.081 89.9049 250.081 90.4897V95H248.7V90.6559C248.7 90.1419 248.566 89.7403 248.299 89.451C248.031 89.1586 247.663 89.0124 247.195 89.0124C246.875 89.0124 246.591 89.0817 246.341 89.2202C246.095 89.3587 245.9 89.5618 245.755 89.8295C245.613 90.0942 245.543 90.4143 245.543 90.7898Z" fill="#9C9D9F"/>
<path d="M32.867 141.129C32.233 141.129 31.6667 141.02 31.1681 140.801C30.6726 140.583 30.2802 140.28 29.9909 139.892C29.7047 139.501 29.5508 139.049 29.5293 138.535H30.9789C30.9973 138.815 31.0912 139.058 31.2605 139.264C31.4328 139.467 31.6575 139.624 31.9345 139.735C32.2115 139.846 32.5192 139.901 32.8578 139.901C33.2302 139.901 33.5595 139.837 33.8457 139.707C34.135 139.578 34.3612 139.398 34.5243 139.167C34.6874 138.933 34.769 138.664 34.769 138.359C34.769 138.042 34.6874 137.764 34.5243 137.524C34.3643 137.281 34.1288 137.09 33.818 136.951C33.5102 136.813 33.1378 136.744 32.7008 136.744H31.9022V135.58H32.7008C33.0517 135.58 33.3594 135.517 33.6241 135.391C33.8919 135.265 34.1011 135.089 34.252 134.865C34.4028 134.637 34.4782 134.371 34.4782 134.066C34.4782 133.774 34.412 133.52 34.2797 133.304C34.1504 133.086 33.9657 132.915 33.7257 132.792C33.4887 132.669 33.2086 132.607 32.8855 132.607C32.5777 132.607 32.29 132.664 32.0222 132.778C31.7575 132.889 31.5421 133.049 31.3759 133.258C31.2097 133.464 31.1204 133.712 31.1081 134.001H29.7278C29.7432 133.491 29.894 133.041 30.1802 132.653C30.4695 132.266 30.8511 131.962 31.3251 131.744C31.7991 131.525 32.3253 131.416 32.9039 131.416C33.5102 131.416 34.0334 131.535 34.4735 131.772C34.9167 132.006 35.2583 132.318 35.4984 132.709C35.7415 133.1 35.8616 133.527 35.8585 133.992C35.8616 134.522 35.7138 134.971 35.4153 135.34C35.1199 135.71 34.7259 135.957 34.2335 136.083V136.157C34.8613 136.253 35.3476 136.502 35.6923 136.905C36.0401 137.308 36.2124 137.808 36.2093 138.406C36.2124 138.926 36.0678 139.392 35.7754 139.804C35.4861 140.217 35.0906 140.541 34.589 140.778C34.0873 141.012 33.5133 141.129 32.867 141.129ZM41.5414 131.545V141H40.1103V132.977H40.0549L37.7928 134.454V133.087L40.1518 131.545H41.5414Z" fill="#9C9D9F"/>
<path d="M71.2093 131.545V141H69.7782V132.977H69.7228L67.4608 134.454V133.087L69.8198 131.545H71.2093Z" fill="black"/>
<rect x="91.2148" y="119.5" width="24.8571" height="33" rx="8.5" fill="white"/>
<path d="M100.566 141V139.966L103.765 136.651C104.107 136.291 104.388 135.976 104.61 135.705C104.834 135.431 105.002 135.171 105.113 134.925C105.224 134.679 105.279 134.417 105.279 134.14C105.279 133.826 105.205 133.555 105.058 133.327C104.91 133.097 104.708 132.92 104.453 132.797C104.197 132.67 103.91 132.607 103.589 132.607C103.251 132.607 102.955 132.676 102.703 132.815C102.451 132.953 102.257 133.149 102.121 133.401C101.986 133.654 101.918 133.949 101.918 134.288H100.556C100.556 133.712 100.689 133.209 100.953 132.778C101.218 132.347 101.581 132.013 102.043 131.776C102.505 131.536 103.029 131.416 103.617 131.416C104.211 131.416 104.734 131.535 105.187 131.772C105.642 132.006 105.998 132.326 106.253 132.732C106.509 133.135 106.636 133.591 106.636 134.098C106.636 134.449 106.57 134.792 106.438 135.128C106.309 135.463 106.082 135.837 105.759 136.25C105.436 136.659 104.987 137.156 104.411 137.741L102.532 139.707V139.777H106.789V141H100.566Z" fill="#8840FF"/>
<rect x="91.2148" y="119.5" width="24.8571" height="33" rx="8.5" stroke="#8840FF"/>
<path d="M137.512 141.129C136.878 141.129 136.311 141.02 135.813 140.801C135.317 140.583 134.925 140.28 134.635 139.892C134.349 139.501 134.195 139.049 134.174 138.535H135.623C135.642 138.815 135.736 139.058 135.905 139.264C136.077 139.467 136.302 139.624 136.579 139.735C136.856 139.846 137.164 139.901 137.502 139.901C137.875 139.901 138.204 139.837 138.49 139.707C138.78 139.578 139.006 139.398 139.169 139.167C139.332 138.933 139.414 138.664 139.414 138.359C139.414 138.042 139.332 137.764 139.169 137.524C139.009 137.281 138.773 137.09 138.463 136.951C138.155 136.813 137.782 136.744 137.345 136.744H136.547V135.58H137.345C137.696 135.58 138.004 135.517 138.269 135.391C138.536 135.265 138.746 135.089 138.896 134.865C139.047 134.637 139.123 134.371 139.123 134.066C139.123 133.774 139.057 133.52 138.924 133.304C138.795 133.086 138.61 132.915 138.37 132.792C138.133 132.669 137.853 132.607 137.53 132.607C137.222 132.607 136.934 132.664 136.667 132.778C136.402 132.889 136.187 133.049 136.02 133.258C135.854 133.464 135.765 133.712 135.753 134.001H134.372C134.388 133.491 134.539 133.041 134.825 132.653C135.114 132.266 135.496 131.962 135.97 131.744C136.444 131.525 136.97 131.416 137.548 131.416C138.155 131.416 138.678 131.535 139.118 131.772C139.561 132.006 139.903 132.318 140.143 132.709C140.386 133.1 140.506 133.527 140.503 133.992C140.506 134.522 140.358 134.971 140.06 135.34C139.764 135.71 139.37 135.957 138.878 136.083V136.157C139.506 136.253 139.992 136.502 140.337 136.905C140.685 137.308 140.857 137.808 140.854 138.406C140.857 138.926 140.712 139.392 140.42 139.804C140.131 140.217 139.735 140.541 139.233 140.778C138.732 141.012 138.158 141.129 137.512 141.129Z" fill="black"/>
<path d="M167.813 139.153V137.999L171.899 131.545H172.809V133.244H172.231L169.309 137.87V137.944H174.909V139.153H167.813ZM172.296 141V138.803L172.305 138.276V131.545H173.658V141H172.296Z" fill="black"/>
<path d="M205.212 141.129C204.634 141.129 204.114 141.018 203.652 140.797C203.193 140.572 202.827 140.264 202.553 139.874C202.279 139.483 202.133 139.036 202.115 138.535H203.5C203.533 138.941 203.713 139.275 204.04 139.537C204.366 139.798 204.757 139.929 205.212 139.929C205.575 139.929 205.897 139.846 206.177 139.68C206.46 139.51 206.682 139.278 206.842 138.983C207.005 138.687 207.087 138.35 207.087 137.972C207.087 137.587 207.004 137.244 206.837 136.942C206.671 136.641 206.442 136.404 206.149 136.231C205.86 136.059 205.528 135.971 205.152 135.968C204.866 135.968 204.578 136.017 204.289 136.116C204 136.214 203.766 136.344 203.587 136.504L202.281 136.31L202.812 131.545H208.01V132.769H203.998L203.698 135.414H203.754C203.938 135.236 204.183 135.086 204.488 134.966C204.795 134.846 205.125 134.786 205.475 134.786C206.051 134.786 206.563 134.923 207.013 135.197C207.465 135.471 207.821 135.845 208.079 136.319C208.341 136.79 208.47 137.331 208.467 137.944C208.47 138.556 208.332 139.103 208.051 139.583C207.774 140.063 207.39 140.441 206.897 140.718C206.408 140.992 205.846 141.129 205.212 141.129Z" fill="black"/>
<path d="M239.148 141.129C238.727 141.123 238.311 141.046 237.902 140.898C237.496 140.751 237.126 140.504 236.794 140.16C236.461 139.815 236.195 139.352 235.995 138.77C235.798 138.189 235.7 137.462 235.7 136.591C235.7 135.766 235.781 135.034 235.944 134.394C236.111 133.754 236.349 133.214 236.66 132.773C236.971 132.33 237.346 131.993 237.786 131.762C238.226 131.532 238.72 131.416 239.268 131.416C239.831 131.416 240.332 131.527 240.769 131.749C241.206 131.97 241.56 132.276 241.83 132.667C242.104 133.058 242.278 133.503 242.352 134.001H240.944C240.849 133.607 240.659 133.286 240.376 133.037C240.093 132.787 239.724 132.663 239.268 132.663C238.576 132.663 238.036 132.964 237.648 133.567C237.263 134.171 237.069 135.009 237.066 136.083H237.135C237.299 135.816 237.499 135.588 237.736 135.4C237.976 135.209 238.243 135.063 238.539 134.962C238.837 134.857 239.151 134.805 239.481 134.805C240.028 134.805 240.524 134.939 240.967 135.206C241.413 135.471 241.769 135.837 242.034 136.305C242.298 136.773 242.431 137.308 242.431 137.912C242.431 138.515 242.294 139.061 242.02 139.55C241.749 140.04 241.367 140.428 240.875 140.714C240.382 140.997 239.807 141.135 239.148 141.129ZM239.144 139.929C239.507 139.929 239.831 139.84 240.118 139.661C240.404 139.483 240.63 139.243 240.796 138.941C240.962 138.639 241.046 138.302 241.046 137.93C241.046 137.567 240.964 137.236 240.801 136.938C240.641 136.639 240.419 136.402 240.136 136.227C239.856 136.051 239.536 135.963 239.176 135.963C238.902 135.963 238.648 136.016 238.414 136.12C238.183 136.225 237.98 136.37 237.805 136.554C237.629 136.739 237.491 136.951 237.389 137.191C237.291 137.428 237.242 137.679 237.242 137.944C237.242 138.298 237.323 138.626 237.486 138.927C237.652 139.229 237.879 139.472 238.165 139.657C238.454 139.838 238.78 139.929 239.144 139.929Z" fill="black"/>
<path d="M33.3916 183L37.5187 174.838V174.769H32.7453V173.545H38.996V174.81L34.8827 183H33.3916Z" fill="black"/>
<path d="M69.7823 183.129C69.1206 183.129 68.5358 183.015 68.028 182.788C67.5233 182.56 67.1278 182.246 66.8416 181.846C66.5554 181.446 66.4138 180.99 66.4169 180.479C66.4138 180.079 66.4953 179.712 66.6615 179.376C66.8308 179.038 67.0601 178.756 67.3494 178.531C67.6387 178.304 67.9618 178.159 68.3188 178.097V178.042C67.848 177.928 67.471 177.676 67.1878 177.285C66.9047 176.894 66.7646 176.445 66.7677 175.937C66.7646 175.454 66.8924 175.023 67.1509 174.644C67.4125 174.263 67.771 173.962 68.2265 173.744C68.682 173.525 69.2006 173.416 69.7823 173.416C70.3578 173.416 70.8718 173.527 71.3242 173.749C71.7797 173.967 72.1382 174.267 72.3998 174.649C72.6614 175.027 72.7938 175.457 72.7968 175.937C72.7938 176.445 72.6491 176.894 72.3629 177.285C72.0767 177.676 71.7043 177.928 71.2457 178.042V178.097C71.5996 178.159 71.9182 178.304 72.2013 178.531C72.4875 178.756 72.7153 179.038 72.8845 179.376C73.0569 179.712 73.1446 180.079 73.1477 180.479C73.1446 180.99 73 181.446 72.7137 181.846C72.4275 182.246 72.0305 182.56 71.5227 182.788C71.0179 183.015 70.4378 183.129 69.7823 183.129ZM69.7823 181.961C70.1731 181.961 70.5117 181.897 70.7979 181.767C71.0841 181.635 71.3057 181.452 71.4627 181.218C71.6196 180.981 71.6996 180.704 71.7027 180.387C71.6996 180.058 71.6135 179.767 71.4442 179.515C71.278 179.262 71.0518 179.064 70.7656 178.919C70.4794 178.774 70.1516 178.702 69.7823 178.702C69.4099 178.702 69.079 178.774 68.7897 178.919C68.5004 179.064 68.2727 179.262 68.1065 179.515C67.9403 179.767 67.8587 180.058 67.8618 180.387C67.8587 180.704 67.9341 180.981 68.088 181.218C68.245 181.452 68.4681 181.635 68.7574 181.767C69.0467 181.897 69.3883 181.961 69.7823 181.961ZM69.7823 177.562C70.0962 177.562 70.3747 177.499 70.6179 177.373C70.861 177.246 71.0518 177.071 71.1903 176.846C71.3319 176.622 71.4042 176.358 71.4073 176.057C71.4042 175.761 71.3334 175.503 71.1949 175.281C71.0595 175.06 70.8702 174.889 70.6271 174.769C70.384 174.646 70.1023 174.584 69.7823 174.584C69.456 174.584 69.1698 174.646 68.9236 174.769C68.6805 174.889 68.4912 175.06 68.3558 175.281C68.2204 175.503 68.1542 175.761 68.1573 176.057C68.1542 176.358 68.2219 176.622 68.3604 176.846C68.4989 177.071 68.6897 177.246 68.9328 177.373C69.1791 177.499 69.4622 177.562 69.7823 177.562Z" fill="black"/>
<path d="M103.564 173.416C103.985 173.419 104.401 173.496 104.81 173.647C105.219 173.798 105.589 174.044 105.918 174.386C106.25 174.727 106.515 175.189 106.712 175.771C106.912 176.349 107.014 177.069 107.017 177.931C107.017 178.759 106.934 179.496 106.767 180.142C106.601 180.786 106.363 181.329 106.052 181.772C105.744 182.215 105.37 182.552 104.93 182.783C104.49 183.014 103.994 183.129 103.443 183.129C102.88 183.129 102.38 183.018 101.943 182.797C101.506 182.575 101.151 182.269 100.877 181.878C100.603 181.484 100.432 181.032 100.364 180.521H101.772C101.865 180.927 102.052 181.257 102.336 181.509C102.622 181.758 102.991 181.883 103.443 181.883C104.136 181.883 104.676 181.581 105.064 180.978C105.452 180.372 105.647 179.525 105.65 178.439H105.576C105.416 178.704 105.216 178.931 104.976 179.122C104.739 179.313 104.473 179.461 104.178 179.565C103.882 179.67 103.567 179.722 103.231 179.722C102.686 179.722 102.191 179.588 101.745 179.321C101.298 179.053 100.943 178.685 100.678 178.217C100.414 177.75 100.281 177.216 100.281 176.615C100.281 176.018 100.417 175.477 100.687 174.99C100.961 174.504 101.343 174.119 101.832 173.836C102.325 173.55 102.902 173.41 103.564 173.416ZM103.568 174.616C103.208 174.616 102.883 174.706 102.594 174.884C102.308 175.06 102.082 175.298 101.915 175.6C101.749 175.898 101.666 176.231 101.666 176.597C101.666 176.963 101.746 177.296 101.906 177.594C102.069 177.89 102.291 178.125 102.571 178.3C102.854 178.473 103.177 178.559 103.54 178.559C103.811 178.559 104.064 178.507 104.298 178.402C104.531 178.297 104.736 178.153 104.912 177.968C105.087 177.78 105.224 177.568 105.322 177.331C105.421 177.094 105.47 176.845 105.47 176.583C105.47 176.235 105.387 175.912 105.221 175.614C105.058 175.315 104.833 175.075 104.547 174.893C104.261 174.709 103.934 174.616 103.568 174.616Z" fill="black"/>
<path d="M134.728 173.545V183H133.297V174.977H133.242L130.98 176.454V175.087L133.339 173.545H134.728ZM140.577 183.157C139.848 183.154 139.225 182.962 138.708 182.58C138.191 182.198 137.795 181.643 137.521 180.913C137.247 180.184 137.11 179.305 137.11 178.277C137.11 177.252 137.247 176.377 137.521 175.651C137.798 174.924 138.195 174.37 138.712 173.989C139.233 173.607 139.854 173.416 140.577 173.416C141.301 173.416 141.921 173.609 142.438 173.993C142.955 174.375 143.35 174.929 143.624 175.655C143.901 176.378 144.04 177.252 144.04 178.277C144.04 179.308 143.903 180.189 143.629 180.918C143.355 181.644 142.96 182.2 142.443 182.585C141.925 182.966 141.304 183.157 140.577 183.157ZM140.577 181.924C141.218 181.924 141.718 181.612 142.078 180.987C142.441 180.362 142.623 179.459 142.623 178.277C142.623 177.493 142.539 176.829 142.373 176.288C142.21 175.743 141.975 175.33 141.667 175.05C141.362 174.767 140.999 174.626 140.577 174.626C139.94 174.626 139.44 174.94 139.077 175.567C138.714 176.195 138.531 177.099 138.528 178.277C138.528 179.065 138.609 179.732 138.772 180.276C138.939 180.818 139.174 181.229 139.479 181.509C139.783 181.786 140.15 181.924 140.577 181.924Z" fill="black"/>
<path d="M169.707 173.545V183H168.276V174.977H168.221L165.959 176.454V175.087L168.318 173.545H169.707ZM175.852 173.545V183H174.421V174.977H174.365L172.103 176.454V175.087L174.462 173.545H175.852Z" fill="black"/>
<path d="M202.651 173.545V183H201.22V174.977H201.164L198.902 176.454V175.087L201.261 173.545H202.651ZM205.208 183V181.966L208.407 178.651C208.749 178.291 209.031 177.976 209.252 177.705C209.477 177.431 209.645 177.171 209.756 176.925C209.866 176.679 209.922 176.417 209.922 176.14C209.922 175.826 209.848 175.555 209.7 175.327C209.552 175.097 209.351 174.92 209.095 174.797C208.84 174.67 208.552 174.607 208.232 174.607C207.894 174.607 207.598 174.676 207.346 174.815C207.093 174.953 206.899 175.149 206.764 175.401C206.629 175.654 206.561 175.949 206.561 176.288H205.199C205.199 175.712 205.331 175.209 205.596 174.778C205.861 174.347 206.224 174.013 206.686 173.776C207.147 173.536 207.672 173.416 208.26 173.416C208.854 173.416 209.377 173.535 209.829 173.772C210.285 174.006 210.64 174.326 210.896 174.732C211.151 175.135 211.279 175.591 211.279 176.098C211.279 176.449 211.213 176.792 211.08 177.128C210.951 177.463 210.725 177.837 210.402 178.25C210.079 178.659 209.629 179.156 209.054 179.741L207.175 181.707V181.777H211.431V183H205.208Z" fill="black"/>
<path d="M236.305 173.545V183H234.874V174.977H234.819L232.556 176.454V175.087L234.915 173.545H236.305ZM242.154 183.129C241.52 183.129 240.954 183.02 240.455 182.801C239.96 182.583 239.567 182.28 239.278 181.892C238.992 181.501 238.838 181.049 238.816 180.535H240.266C240.284 180.815 240.378 181.058 240.548 181.264C240.72 181.467 240.945 181.624 241.222 181.735C241.499 181.846 241.806 181.901 242.145 181.901C242.517 181.901 242.847 181.837 243.133 181.707C243.422 181.578 243.648 181.398 243.811 181.167C243.975 180.933 244.056 180.664 244.056 180.359C244.056 180.042 243.975 179.764 243.811 179.524C243.651 179.281 243.416 179.09 243.105 178.951C242.797 178.813 242.425 178.744 241.988 178.744H241.189V177.58H241.988C242.339 177.58 242.647 177.517 242.911 177.391C243.179 177.265 243.388 177.089 243.539 176.865C243.69 176.637 243.765 176.371 243.765 176.066C243.765 175.774 243.699 175.52 243.567 175.304C243.438 175.086 243.253 174.915 243.013 174.792C242.776 174.669 242.496 174.607 242.173 174.607C241.865 174.607 241.577 174.664 241.309 174.778C241.045 174.889 240.829 175.049 240.663 175.258C240.497 175.464 240.408 175.712 240.395 176.001H239.015C239.03 175.491 239.181 175.041 239.467 174.653C239.757 174.266 240.138 173.962 240.612 173.744C241.086 173.525 241.612 173.416 242.191 173.416C242.797 173.416 243.321 173.535 243.761 173.772C244.204 174.006 244.545 174.318 244.786 174.709C245.029 175.1 245.149 175.527 245.146 175.992C245.149 176.522 245.001 176.971 244.702 177.34C244.407 177.71 244.013 177.957 243.521 178.083V178.157C244.148 178.253 244.635 178.502 244.979 178.905C245.327 179.308 245.5 179.808 245.496 180.406C245.5 180.926 245.355 181.392 245.062 181.804C244.773 182.217 244.378 182.541 243.876 182.778C243.374 183.012 242.8 183.129 242.154 183.129Z" fill="black"/>
<path d="M33.099 215.545V225H31.6679V216.977H31.6125L29.3504 218.454V217.087L31.7094 215.545H33.099ZM35.458 223.153V221.999L39.5436 215.545H40.453V217.244H39.876L36.9537 221.87V221.944H42.5535V223.153H35.458ZM39.9406 225V222.803L39.9498 222.276V215.545H41.3025V225H39.9406Z" fill="black"/>
<path d="M67.1786 215.545V225H65.7475V216.977H65.6921L63.43 218.454V217.087L65.789 215.545H67.1786ZM72.8568 225.129C72.2782 225.129 71.7581 225.018 71.2965 224.797C70.8379 224.572 70.4717 224.264 70.1978 223.874C69.9238 223.483 69.7777 223.036 69.7592 222.535H71.1441C71.178 222.941 71.358 223.275 71.6843 223.537C72.0105 223.798 72.4014 223.929 72.8568 223.929C73.22 223.929 73.5416 223.846 73.8217 223.68C74.1048 223.51 74.3264 223.278 74.4865 222.983C74.6496 222.687 74.7311 222.35 74.7311 221.972C74.7311 221.587 74.648 221.244 74.4818 220.942C74.3157 220.641 74.0864 220.404 73.794 220.231C73.5047 220.059 73.1723 219.971 72.7968 219.968C72.5106 219.968 72.2228 220.017 71.9335 220.116C71.6443 220.214 71.4103 220.344 71.2318 220.504L69.9254 220.31L70.4563 215.545H75.6544V216.769H71.6427L71.3426 219.414H71.398C71.5827 219.236 71.8274 219.086 72.1321 218.966C72.4398 218.846 72.7691 218.786 73.12 218.786C73.6955 218.786 74.2079 218.923 74.6573 219.197C75.1097 219.471 75.4652 219.845 75.7237 220.319C75.9853 220.79 76.1145 221.331 76.1115 221.944C76.1145 222.556 75.976 223.103 75.696 223.583C75.419 224.063 75.0343 224.441 74.5419 224.718C74.0525 224.992 73.4908 225.129 72.8568 225.129Z" fill="black"/>
<path d="M100.934 215.545V225H99.5033V216.977H99.4479L97.1859 218.454V217.087L99.5449 215.545H100.934ZM106.793 225.129C106.371 225.123 105.956 225.046 105.546 224.898C105.14 224.751 104.771 224.504 104.438 224.16C104.106 223.815 103.84 223.352 103.64 222.77C103.443 222.189 103.344 221.462 103.344 220.591C103.344 219.766 103.426 219.034 103.589 218.394C103.755 217.754 103.994 217.214 104.304 216.773C104.615 216.33 104.991 215.993 105.431 215.762C105.871 215.532 106.365 215.416 106.913 215.416C107.476 215.416 107.976 215.527 108.413 215.749C108.85 215.97 109.204 216.276 109.475 216.667C109.749 217.058 109.923 217.503 109.997 218.001H108.589C108.493 217.607 108.304 217.286 108.021 217.037C107.738 216.787 107.368 216.663 106.913 216.663C106.22 216.663 105.68 216.964 105.292 217.567C104.908 218.171 104.714 219.009 104.711 220.083H104.78C104.943 219.816 105.143 219.588 105.38 219.4C105.62 219.209 105.888 219.063 106.183 218.962C106.482 218.857 106.796 218.805 107.125 218.805C107.673 218.805 108.168 218.939 108.612 219.206C109.058 219.471 109.413 219.837 109.678 220.305C109.943 220.773 110.075 221.308 110.075 221.912C110.075 222.515 109.938 223.061 109.664 223.55C109.393 224.04 109.012 224.428 108.519 224.714C108.027 224.997 107.451 225.135 106.793 225.129ZM106.788 223.929C107.151 223.929 107.476 223.84 107.762 223.661C108.048 223.483 108.275 223.243 108.441 222.941C108.607 222.639 108.69 222.302 108.69 221.93C108.69 221.567 108.609 221.236 108.445 220.938C108.285 220.639 108.064 220.402 107.781 220.227C107.501 220.051 107.181 219.963 106.82 219.963C106.547 219.963 106.293 220.016 106.059 220.12C105.828 220.225 105.625 220.37 105.449 220.554C105.274 220.739 105.135 220.951 105.034 221.191C104.935 221.428 104.886 221.679 104.886 221.944C104.886 222.298 104.968 222.626 105.131 222.927C105.297 223.229 105.523 223.472 105.809 223.657C106.099 223.838 106.425 223.929 106.788 223.929Z" fill="black"/>
<path d="M135.16 215.545V225H133.729V216.977H133.674L131.411 218.454V217.087L133.77 215.545H135.16ZM138.036 225L142.163 216.838V216.769H137.39V215.545H143.64V216.81L139.527 225H138.036Z" fill="black"/>
<rect x="158.928" y="203.5" width="24.8571" height="33" rx="8.5" fill="#8840FF"/>
<path d="M168.673 215.545V225H167.242V216.977H167.186L164.924 218.454V217.087L167.283 215.545H168.673ZM174.425 225.129C173.763 225.129 173.178 225.015 172.671 224.788C172.166 224.56 171.77 224.246 171.484 223.846C171.198 223.446 171.056 222.99 171.059 222.479C171.056 222.079 171.138 221.712 171.304 221.376C171.473 221.038 171.703 220.756 171.992 220.531C172.281 220.304 172.604 220.159 172.961 220.097V220.042C172.491 219.928 172.114 219.676 171.83 219.285C171.547 218.894 171.407 218.445 171.41 217.937C171.407 217.454 171.535 217.023 171.793 216.644C172.055 216.263 172.414 215.962 172.869 215.744C173.325 215.525 173.843 215.416 174.425 215.416C175 215.416 175.514 215.527 175.967 215.749C176.422 215.967 176.781 216.267 177.042 216.649C177.304 217.027 177.436 217.457 177.439 217.937C177.436 218.445 177.292 218.894 177.005 219.285C176.719 219.676 176.347 219.928 175.888 220.042V220.097C176.242 220.159 176.561 220.304 176.844 220.531C177.13 220.756 177.358 221.038 177.527 221.376C177.699 221.712 177.787 222.079 177.79 222.479C177.787 222.99 177.643 223.446 177.356 223.846C177.07 224.246 176.673 224.56 176.165 224.788C175.661 225.015 175.08 225.129 174.425 225.129ZM174.425 223.961C174.816 223.961 175.154 223.897 175.44 223.767C175.727 223.635 175.948 223.452 176.105 223.218C176.262 222.981 176.342 222.704 176.345 222.387C176.342 222.058 176.256 221.767 176.087 221.515C175.921 221.262 175.694 221.064 175.408 220.919C175.122 220.774 174.794 220.702 174.425 220.702C174.052 220.702 173.722 220.774 173.432 220.919C173.143 221.064 172.915 221.262 172.749 221.515C172.583 221.767 172.501 222.058 172.504 222.387C172.501 222.704 172.577 222.981 172.731 223.218C172.888 223.452 173.111 223.635 173.4 223.767C173.689 223.897 174.031 223.961 174.425 223.961ZM174.425 219.562C174.739 219.562 175.017 219.499 175.26 219.373C175.504 219.246 175.694 219.071 175.833 218.846C175.974 218.622 176.047 218.358 176.05 218.057C176.047 217.761 175.976 217.503 175.837 217.281C175.702 217.06 175.513 216.889 175.27 216.769C175.027 216.646 174.745 216.584 174.425 216.584C174.099 216.584 173.812 216.646 173.566 216.769C173.323 216.889 173.134 217.06 172.998 217.281C172.863 217.503 172.797 217.761 172.8 218.057C172.797 218.358 172.864 218.622 173.003 218.846C173.141 219.071 173.332 219.246 173.575 219.373C173.822 219.499 174.105 219.562 174.425 219.562Z" fill="white"/>
<rect x="158.928" y="203.5" width="24.8571" height="33" rx="8.5" stroke="#6139A0"/>
<path d="M202.505 215.545V225H201.074V216.977H201.018L198.756 218.454V217.087L201.115 215.545H202.505ZM208.206 215.416C208.628 215.419 209.043 215.496 209.453 215.647C209.862 215.798 210.231 216.044 210.561 216.386C210.893 216.727 211.158 217.189 211.355 217.771C211.555 218.349 211.656 219.069 211.659 219.931C211.659 220.759 211.576 221.496 211.41 222.142C211.244 222.786 211.005 223.329 210.694 223.772C210.387 224.215 210.013 224.552 209.573 224.783C209.132 225.014 208.637 225.129 208.086 225.129C207.523 225.129 207.023 225.018 206.586 224.797C206.149 224.575 205.793 224.269 205.519 223.878C205.245 223.484 205.075 223.032 205.007 222.521H206.415C206.507 222.927 206.695 223.257 206.978 223.509C207.264 223.758 207.634 223.883 208.086 223.883C208.779 223.883 209.319 223.581 209.706 222.978C210.094 222.372 210.29 221.525 210.293 220.439H210.219C210.059 220.704 209.859 220.931 209.619 221.122C209.382 221.313 209.116 221.461 208.82 221.565C208.525 221.67 208.209 221.722 207.874 221.722C207.329 221.722 206.833 221.588 206.387 221.321C205.941 221.053 205.585 220.685 205.321 220.217C205.056 219.75 204.924 219.216 204.924 218.615C204.924 218.018 205.059 217.477 205.33 216.99C205.604 216.504 205.986 216.119 206.475 215.836C206.967 215.55 207.544 215.41 208.206 215.416ZM208.211 216.616C207.851 216.616 207.526 216.706 207.237 216.884C206.95 217.06 206.724 217.298 206.558 217.6C206.392 217.898 206.309 218.231 206.309 218.597C206.309 218.963 206.389 219.296 206.549 219.594C206.712 219.89 206.933 220.125 207.214 220.3C207.497 220.473 207.82 220.559 208.183 220.559C208.454 220.559 208.706 220.507 208.94 220.402C209.174 220.297 209.379 220.153 209.554 219.968C209.73 219.78 209.866 219.568 209.965 219.331C210.063 219.094 210.113 218.845 210.113 218.583C210.113 218.235 210.03 217.912 209.863 217.614C209.7 217.315 209.476 217.075 209.189 216.893C208.903 216.709 208.577 216.616 208.211 216.616Z" fill="black"/>
<path d="M231.798 225V223.966L234.997 220.651C235.338 220.291 235.62 219.976 235.842 219.705C236.066 219.431 236.234 219.171 236.345 218.925C236.456 218.679 236.511 218.417 236.511 218.14C236.511 217.826 236.437 217.555 236.289 217.327C236.142 217.097 235.94 216.92 235.685 216.797C235.429 216.67 235.141 216.607 234.821 216.607C234.483 216.607 234.187 216.676 233.935 216.815C233.683 216.953 233.489 217.149 233.353 217.401C233.218 217.654 233.15 217.949 233.15 218.288H231.788C231.788 217.712 231.921 217.209 232.185 216.778C232.45 216.347 232.813 216.013 233.275 215.776C233.737 215.536 234.261 215.416 234.849 215.416C235.443 215.416 235.966 215.535 236.419 215.772C236.874 216.006 237.23 216.326 237.485 216.732C237.741 217.135 237.868 217.591 237.868 218.098C237.868 218.449 237.802 218.792 237.67 219.128C237.541 219.463 237.314 219.837 236.991 220.25C236.668 220.659 236.219 221.156 235.643 221.741L233.764 223.707V223.777H238.021V225H231.798ZM243.062 225.157C242.332 225.154 241.709 224.962 241.192 224.58C240.675 224.198 240.28 223.643 240.006 222.913C239.732 222.184 239.595 221.305 239.595 220.277C239.595 219.252 239.732 218.377 240.006 217.651C240.283 216.924 240.68 216.37 241.197 215.989C241.717 215.607 242.339 215.416 243.062 215.416C243.785 215.416 244.405 215.609 244.922 215.993C245.439 216.375 245.835 216.929 246.109 217.655C246.386 218.378 246.524 219.252 246.524 220.277C246.524 221.308 246.387 222.189 246.113 222.918C245.839 223.644 245.444 224.2 244.927 224.585C244.41 224.966 243.788 225.157 243.062 225.157ZM243.062 223.924C243.702 223.924 244.202 223.612 244.562 222.987C244.925 222.362 245.107 221.459 245.107 220.277C245.107 219.493 245.024 218.829 244.858 218.288C244.695 217.743 244.459 217.33 244.151 217.05C243.847 216.767 243.483 216.626 243.062 216.626C242.425 216.626 241.925 216.94 241.561 217.567C241.198 218.195 241.015 219.099 241.012 220.277C241.012 221.065 241.094 221.732 241.257 222.276C241.423 222.818 241.658 223.229 241.963 223.509C242.268 223.786 242.634 223.924 243.062 223.924Z" fill="black"/>
<path d="M29.7786 267V265.966L32.9778 262.651C33.3194 262.291 33.601 261.976 33.8226 261.705C34.0473 261.431 34.215 261.171 34.3258 260.925C34.4366 260.679 34.492 260.417 34.492 260.14C34.492 259.826 34.4181 259.555 34.2704 259.327C34.1227 259.097 33.9211 258.92 33.6657 258.797C33.4102 258.67 33.1225 258.607 32.8024 258.607C32.4638 258.607 32.1684 258.676 31.916 258.815C31.6636 258.953 31.4698 259.149 31.3343 259.401C31.1989 259.654 31.1312 259.949 31.1312 260.288H29.7694C29.7694 259.712 29.9017 259.209 30.1664 258.778C30.431 258.347 30.7942 258.013 31.2559 257.776C31.7175 257.536 32.2422 257.416 32.8301 257.416C33.4241 257.416 33.9473 257.535 34.3997 257.772C34.8552 258.006 35.2106 258.326 35.4661 258.732C35.7215 259.135 35.8493 259.591 35.8493 260.098C35.8493 260.449 35.7831 260.792 35.6507 261.128C35.5215 261.463 35.2953 261.837 34.9721 262.25C34.649 262.659 34.1996 263.156 33.6241 263.741L31.7452 265.707V265.777H36.0016V267H29.7786ZM41.3382 257.545V267H39.9071V258.977H39.8517L37.5897 260.454V259.087L39.9487 257.545H41.3382Z" fill="black"/>
<path d="M62.7219 267V265.966L65.9212 262.651C66.2628 262.291 66.5444 261.976 66.766 261.705C66.9906 261.431 67.1584 261.171 67.2692 260.925C67.38 260.679 67.4354 260.417 67.4354 260.14C67.4354 259.826 67.3615 259.555 67.2138 259.327C67.0661 259.097 66.8645 258.92 66.609 258.797C66.3536 258.67 66.0658 258.607 65.7457 258.607C65.4072 258.607 65.1117 258.676 64.8594 258.815C64.607 258.953 64.4131 259.149 64.2777 259.401C64.1423 259.654 64.0746 259.949 64.0746 260.288H62.7127C62.7127 259.712 62.8451 259.209 63.1097 258.778C63.3744 258.347 63.7376 258.013 64.1992 257.776C64.6609 257.536 65.1856 257.416 65.7734 257.416C66.3674 257.416 66.8906 257.535 67.343 257.772C67.7985 258.006 68.154 258.326 68.4094 258.732C68.6649 259.135 68.7926 259.591 68.7926 260.098C68.7926 260.449 68.7264 260.792 68.5941 261.128C68.4648 261.463 68.2386 261.837 67.9155 262.25C67.5923 262.659 67.143 263.156 66.5675 263.741L64.6886 265.707V265.777H68.945V267H62.7219ZM70.6946 267V265.966L73.8938 262.651C74.2354 262.291 74.517 261.976 74.7386 261.705C74.9633 261.431 75.131 261.171 75.2418 260.925C75.3526 260.679 75.408 260.417 75.408 260.14C75.408 259.826 75.3342 259.555 75.1864 259.327C75.0387 259.097 74.8371 258.92 74.5817 258.797C74.3262 258.67 74.0385 258.607 73.7184 258.607C73.3799 258.607 73.0844 258.676 72.832 258.815C72.5797 258.953 72.3858 259.149 72.2504 259.401C72.1149 259.654 72.0472 259.949 72.0472 260.288H70.6854C70.6854 259.712 70.8177 259.209 71.0824 258.778C71.3471 258.347 71.7102 258.013 72.1719 257.776C72.6335 257.536 73.1583 257.416 73.7461 257.416C74.3401 257.416 74.8633 257.535 75.3157 257.772C75.7712 258.006 76.1267 258.326 76.3821 258.732C76.6375 259.135 76.7653 259.591 76.7653 260.098C76.7653 260.449 76.6991 260.792 76.5668 261.128C76.4375 261.463 76.2113 261.837 75.8881 262.25C75.565 262.659 75.1156 263.156 74.5401 263.741L72.6612 265.707V265.777H76.9176V267H70.6946Z" fill="black"/>
<path d="M96.3762 267V265.966L99.5755 262.651C99.9171 262.291 100.199 261.976 100.42 261.705C100.645 261.431 100.813 261.171 100.923 260.925C101.034 260.679 101.09 260.417 101.09 260.14C101.09 259.826 101.016 259.555 100.868 259.327C100.72 259.097 100.519 258.92 100.263 258.797C100.008 258.67 99.7201 258.607 99.4 258.607C99.0615 258.607 98.766 258.676 98.5137 258.815C98.2613 258.953 98.0674 259.149 97.932 259.401C97.7966 259.654 97.7289 259.949 97.7289 260.288H96.367C96.367 259.712 96.4993 259.209 96.764 258.778C97.0287 258.347 97.3919 258.013 97.8535 257.776C98.3152 257.536 98.8399 257.416 99.4277 257.416C100.022 257.416 100.545 257.535 100.997 257.772C101.453 258.006 101.808 258.326 102.064 258.732C102.319 259.135 102.447 259.591 102.447 260.098C102.447 260.449 102.381 260.792 102.248 261.128C102.119 261.463 101.893 261.837 101.57 262.25C101.247 262.659 100.797 263.156 100.222 263.741L98.3429 265.707V265.777H102.599V267H96.3762ZM107.64 267.129C107.006 267.129 106.44 267.02 105.942 266.801C105.446 266.583 105.054 266.28 104.764 265.892C104.478 265.501 104.324 265.049 104.303 264.535H105.752C105.771 264.815 105.865 265.058 106.034 265.264C106.206 265.467 106.431 265.624 106.708 265.735C106.985 265.846 107.293 265.901 107.631 265.901C108.004 265.901 108.333 265.837 108.619 265.707C108.908 265.578 109.135 265.398 109.298 265.167C109.461 264.933 109.542 264.664 109.542 264.359C109.542 264.042 109.461 263.764 109.298 263.524C109.138 263.281 108.902 263.09 108.591 262.951C108.284 262.813 107.911 262.744 107.474 262.744H106.676V261.58H107.474C107.825 261.58 108.133 261.517 108.398 261.391C108.665 261.265 108.875 261.089 109.025 260.865C109.176 260.637 109.252 260.371 109.252 260.066C109.252 259.774 109.185 259.52 109.053 259.304C108.924 259.086 108.739 258.915 108.499 258.792C108.262 258.669 107.982 258.607 107.659 258.607C107.351 258.607 107.063 258.664 106.796 258.778C106.531 258.889 106.316 259.049 106.149 259.258C105.983 259.464 105.894 259.712 105.882 260.001H104.501C104.517 259.491 104.667 259.041 104.954 258.653C105.243 258.266 105.625 257.962 106.099 257.744C106.573 257.525 107.099 257.416 107.677 257.416C108.284 257.416 108.807 257.535 109.247 257.772C109.69 258.006 110.032 258.318 110.272 258.709C110.515 259.1 110.635 259.527 110.632 259.992C110.635 260.522 110.487 260.971 110.189 261.34C109.893 261.71 109.499 261.957 109.007 262.083V262.157C109.635 262.253 110.121 262.502 110.466 262.905C110.814 263.308 110.986 263.808 110.983 264.406C110.986 264.926 110.841 265.392 110.549 265.804C110.26 266.217 109.864 266.541 109.362 266.778C108.861 267.012 108.287 267.129 107.64 267.129Z" fill="black"/>
<path d="M130.272 267V265.966L133.471 262.651C133.813 262.291 134.094 261.976 134.316 261.705C134.54 261.431 134.708 261.171 134.819 260.925C134.93 260.679 134.985 260.417 134.985 260.14C134.985 259.826 134.911 259.555 134.764 259.327C134.616 259.097 134.414 258.92 134.159 258.797C133.903 258.67 133.616 258.607 133.296 258.607C132.957 258.607 132.662 258.676 132.409 258.815C132.157 258.953 131.963 259.149 131.828 259.401C131.692 259.654 131.624 259.949 131.624 260.288H130.263C130.263 259.712 130.395 259.209 130.66 258.778C130.924 258.347 131.287 258.013 131.749 257.776C132.211 257.536 132.735 257.416 133.323 257.416C133.917 257.416 134.44 257.535 134.893 257.772C135.348 258.006 135.704 258.326 135.959 258.732C136.215 259.135 136.342 259.591 136.342 260.098C136.342 260.449 136.276 260.792 136.144 261.128C136.015 261.463 135.788 261.837 135.465 262.25C135.142 262.659 134.693 263.156 134.117 263.741L132.238 265.707V265.777H136.495V267H130.272ZM137.843 265.153V263.999L141.928 257.545H142.838V259.244H142.261L139.339 263.87V263.944H144.938V265.153H137.843ZM142.325 267V264.803L142.335 264.276V257.545H143.687V267H142.325Z" fill="black"/>
<path d="M164.248 267V265.966L167.447 262.651C167.789 262.291 168.07 261.976 168.292 261.705C168.517 261.431 168.684 261.171 168.795 260.925C168.906 260.679 168.961 260.417 168.961 260.14C168.961 259.826 168.887 259.555 168.74 259.327C168.592 259.097 168.39 258.92 168.135 258.797C167.879 258.67 167.592 258.607 167.272 258.607C166.933 258.607 166.638 258.676 166.385 258.815C166.133 258.953 165.939 259.149 165.804 259.401C165.668 259.654 165.6 259.949 165.6 260.288H164.239C164.239 259.712 164.371 259.209 164.636 258.778C164.9 258.347 165.263 258.013 165.725 257.776C166.187 257.536 166.711 257.416 167.299 257.416C167.893 257.416 168.417 257.535 168.869 257.772C169.324 258.006 169.68 258.326 169.935 258.732C170.191 259.135 170.318 259.591 170.318 260.098C170.318 260.449 170.252 260.792 170.12 261.128C169.991 261.463 169.765 261.837 169.441 262.25C169.118 262.659 168.669 263.156 168.093 263.741L166.214 265.707V265.777H170.471V267H164.248ZM175.341 267.129C174.763 267.129 174.242 267.018 173.781 266.797C173.322 266.572 172.956 266.264 172.682 265.874C172.408 265.483 172.262 265.036 172.244 264.535H173.629C173.662 264.941 173.842 265.275 174.169 265.537C174.495 265.798 174.886 265.929 175.341 265.929C175.704 265.929 176.026 265.846 176.306 265.68C176.589 265.51 176.811 265.278 176.971 264.983C177.134 264.687 177.216 264.35 177.216 263.972C177.216 263.587 177.132 263.244 176.966 262.942C176.8 262.641 176.571 262.404 176.278 262.231C175.989 262.059 175.657 261.971 175.281 261.968C174.995 261.968 174.707 262.017 174.418 262.116C174.129 262.214 173.895 262.344 173.716 262.504L172.41 262.31L172.941 257.545H178.139V258.769H174.127L173.827 261.414H173.882C174.067 261.236 174.312 261.086 174.616 260.966C174.924 260.846 175.254 260.786 175.604 260.786C176.18 260.786 176.692 260.923 177.142 261.197C177.594 261.471 177.95 261.845 178.208 262.319C178.47 262.79 178.599 263.331 178.596 263.944C178.599 264.556 178.46 265.103 178.18 265.583C177.903 266.063 177.519 266.441 177.026 266.718C176.537 266.992 175.975 267.129 175.341 267.129Z" fill="black"/>
<path d="M198.004 267V265.966L201.203 262.651C201.545 262.291 201.826 261.976 202.048 261.705C202.272 261.431 202.44 261.171 202.551 260.925C202.662 260.679 202.717 260.417 202.717 260.14C202.717 259.826 202.643 259.555 202.496 259.327C202.348 259.097 202.146 258.92 201.891 258.797C201.635 258.67 201.348 258.607 201.027 258.607C200.689 258.607 200.393 258.676 200.141 258.815C199.889 258.953 199.695 259.149 199.559 259.401C199.424 259.654 199.356 259.949 199.356 260.288H197.994C197.994 259.712 198.127 259.209 198.391 258.778C198.656 258.347 199.019 258.013 199.481 257.776C199.943 257.536 200.467 257.416 201.055 257.416C201.649 257.416 202.172 257.535 202.625 257.772C203.08 258.006 203.436 258.326 203.691 258.732C203.947 259.135 204.074 259.591 204.074 260.098C204.074 260.449 204.008 260.792 203.876 261.128C203.747 261.463 203.52 261.837 203.197 262.25C202.874 262.659 202.425 263.156 201.849 263.741L199.97 265.707V265.777H204.227V267H198.004ZM209.277 267.129C208.855 267.123 208.44 267.046 208.031 266.898C207.624 266.751 207.255 266.504 206.923 266.16C206.59 265.815 206.324 265.352 206.124 264.77C205.927 264.189 205.829 263.462 205.829 262.591C205.829 261.766 205.91 261.034 206.073 260.394C206.239 259.754 206.478 259.214 206.789 258.773C207.1 258.33 207.475 257.993 207.915 257.762C208.355 257.532 208.849 257.416 209.397 257.416C209.96 257.416 210.46 257.527 210.898 257.749C211.335 257.97 211.688 258.276 211.959 258.667C212.233 259.058 212.407 259.503 212.481 260.001H211.073C210.978 259.607 210.788 259.286 210.505 259.037C210.222 258.787 209.853 258.663 209.397 258.663C208.705 258.663 208.165 258.964 207.777 259.567C207.392 260.171 207.198 261.009 207.195 262.083H207.264C207.427 261.816 207.628 261.588 207.864 261.4C208.105 261.209 208.372 261.063 208.668 260.962C208.966 260.857 209.28 260.805 209.61 260.805C210.157 260.805 210.653 260.939 211.096 261.206C211.542 261.471 211.898 261.837 212.162 262.305C212.427 262.773 212.559 263.308 212.559 263.912C212.559 264.515 212.422 265.061 212.149 265.55C211.878 266.04 211.496 266.428 211.004 266.714C210.511 266.997 209.936 267.135 209.277 267.129ZM209.273 265.929C209.636 265.929 209.96 265.84 210.247 265.661C210.533 265.483 210.759 265.243 210.925 264.941C211.091 264.639 211.174 264.302 211.174 263.93C211.174 263.567 211.093 263.236 210.93 262.938C210.77 262.639 210.548 262.402 210.265 262.227C209.985 262.051 209.665 261.963 209.305 261.963C209.031 261.963 208.777 262.016 208.543 262.12C208.312 262.225 208.109 262.37 207.934 262.554C207.758 262.739 207.62 262.951 207.518 263.191C207.42 263.428 207.371 263.679 207.371 263.944C207.371 264.298 207.452 264.626 207.615 264.927C207.781 265.229 208.008 265.472 208.294 265.657C208.583 265.838 208.909 265.929 209.273 265.929Z" fill="black"/>
<path d="M232.229 267V265.966L235.428 262.651C235.77 262.291 236.052 261.976 236.273 261.705C236.498 261.431 236.666 261.171 236.777 260.925C236.887 260.679 236.943 260.417 236.943 260.14C236.943 259.826 236.869 259.555 236.721 259.327C236.573 259.097 236.372 258.92 236.116 258.797C235.861 258.67 235.573 258.607 235.253 258.607C234.915 258.607 234.619 258.676 234.367 258.815C234.114 258.953 233.92 259.149 233.785 259.401C233.65 259.654 233.582 259.949 233.582 260.288H232.22C232.22 259.712 232.352 259.209 232.617 258.778C232.882 258.347 233.245 258.013 233.707 257.776C234.168 257.536 234.693 257.416 235.281 257.416C235.875 257.416 236.398 257.535 236.85 257.772C237.306 258.006 237.661 258.326 237.917 258.732C238.172 259.135 238.3 259.591 238.3 260.098C238.3 260.449 238.234 260.792 238.101 261.128C237.972 261.463 237.746 261.837 237.423 262.25C237.1 262.659 236.65 263.156 236.075 263.741L234.196 265.707V265.777H238.452V267H232.229ZM240.52 267L244.648 258.838V258.769H239.874V257.545H246.125V258.81L242.012 267H240.52Z" fill="black"/>
<path d="M28.7439 309V307.966L31.9431 304.651C32.2848 304.291 32.5664 303.976 32.788 303.705C33.0126 303.431 33.1804 303.171 33.2911 302.925C33.4019 302.679 33.4573 302.417 33.4573 302.14C33.4573 301.826 33.3835 301.555 33.2358 301.327C33.088 301.097 32.8864 300.92 32.631 300.797C32.3755 300.67 32.0878 300.607 31.7677 300.607C31.4292 300.607 31.1337 300.676 30.8813 300.815C30.629 300.953 30.4351 301.149 30.2997 301.401C30.1643 301.654 30.0965 301.949 30.0965 302.288H28.7347C28.7347 301.712 28.867 301.209 29.1317 300.778C29.3964 300.347 29.7595 300.013 30.2212 299.776C30.6828 299.536 31.2076 299.416 31.7954 299.416C32.3894 299.416 32.9126 299.535 33.365 299.772C33.8205 300.006 34.176 300.326 34.4314 300.732C34.6869 301.135 34.8146 301.591 34.8146 302.098C34.8146 302.449 34.7484 302.792 34.6161 303.128C34.4868 303.463 34.2606 303.837 33.9375 304.25C33.6143 304.659 33.165 305.156 32.5894 305.741L30.7105 307.707V307.777H34.9669V309H28.7439ZM39.9112 309.129C39.2495 309.129 38.6647 309.015 38.1569 308.788C37.6522 308.56 37.2567 308.246 36.9705 307.846C36.6843 307.446 36.5427 306.99 36.5458 306.479C36.5427 306.079 36.6242 305.712 36.7904 305.376C36.9597 305.038 37.189 304.756 37.4783 304.531C37.7676 304.304 38.0907 304.159 38.4478 304.097V304.042C37.9769 303.928 37.5999 303.676 37.3167 303.285C37.0336 302.894 36.8935 302.445 36.8966 301.937C36.8935 301.454 37.0213 301.023 37.2798 300.644C37.5414 300.263 37.8999 299.962 38.3554 299.744C38.8109 299.525 39.3295 299.416 39.9112 299.416C40.4867 299.416 41.0007 299.527 41.4531 299.749C41.9086 299.967 42.2671 300.267 42.5287 300.649C42.7903 301.027 42.9227 301.457 42.9257 301.937C42.9227 302.445 42.778 302.894 42.4918 303.285C42.2056 303.676 41.8332 303.928 41.3746 304.042V304.097C41.7285 304.159 42.0471 304.304 42.3302 304.531C42.6164 304.756 42.8442 305.038 43.0134 305.376C43.1858 305.712 43.2735 306.079 43.2766 306.479C43.2735 306.99 43.1289 307.446 42.8426 307.846C42.5564 308.246 42.1594 308.56 41.6516 308.788C41.1469 309.015 40.5667 309.129 39.9112 309.129ZM39.9112 307.961C40.302 307.961 40.6406 307.897 40.9268 307.767C41.213 307.635 41.4346 307.452 41.5916 307.218C41.7485 306.981 41.8286 306.704 41.8316 306.387C41.8286 306.058 41.7424 305.767 41.5731 305.515C41.4069 305.262 41.1807 305.064 40.8945 304.919C40.6083 304.774 40.2805 304.702 39.9112 304.702C39.5388 304.702 39.2079 304.774 38.9186 304.919C38.6293 305.064 38.4016 305.262 38.2354 305.515C38.0692 305.767 37.9876 306.058 37.9907 306.387C37.9876 306.704 38.063 306.981 38.2169 307.218C38.3739 307.452 38.597 307.635 38.8863 307.767C39.1756 307.897 39.5172 307.961 39.9112 307.961ZM39.9112 303.562C40.2251 303.562 40.5036 303.499 40.7468 303.373C40.9899 303.246 41.1807 303.071 41.3192 302.846C41.4608 302.622 41.5331 302.358 41.5362 302.057C41.5331 301.761 41.4623 301.503 41.3238 301.281C41.1884 301.06 40.9991 300.889 40.756 300.769C40.5129 300.646 40.2313 300.584 39.9112 300.584C39.5849 300.584 39.2987 300.646 39.0525 300.769C38.8094 300.889 38.6201 301.06 38.4847 301.281C38.3493 301.503 38.2831 301.761 38.2862 302.057C38.2831 302.358 38.3508 302.622 38.4893 302.846C38.6278 303.071 38.8186 303.246 39.0617 303.373C39.308 303.499 39.5911 303.562 39.9112 303.562Z" fill="black"/>
<path d="M62.5759 309V307.966L65.7752 304.651C66.1168 304.291 66.3984 303.976 66.62 303.705C66.8447 303.431 67.0124 303.171 67.1232 302.925C67.234 302.679 67.2894 302.417 67.2894 302.14C67.2894 301.826 67.2155 301.555 67.0678 301.327C66.9201 301.097 66.7185 300.92 66.463 300.797C66.2076 300.67 65.9198 300.607 65.5997 300.607C65.2612 300.607 64.9657 300.676 64.7134 300.815C64.461 300.953 64.2671 301.149 64.1317 301.401C63.9963 301.654 63.9286 301.949 63.9286 302.288H62.5667C62.5667 301.712 62.6991 301.209 62.9637 300.778C63.2284 300.347 63.5916 300.013 64.0532 299.776C64.5149 299.536 65.0396 299.416 65.6274 299.416C66.2214 299.416 66.7446 299.535 67.197 299.772C67.6525 300.006 68.008 300.326 68.2634 300.732C68.5189 301.135 68.6466 301.591 68.6466 302.098C68.6466 302.449 68.5804 302.792 68.4481 303.128C68.3188 303.463 68.0926 303.837 67.7695 304.25C67.4463 304.659 66.997 305.156 66.4215 305.741L64.5426 307.707V307.777H68.799V309H62.5759ZM73.6924 299.416C74.1141 299.419 74.5295 299.496 74.9389 299.647C75.3482 299.798 75.7175 300.044 76.0468 300.386C76.3792 300.727 76.6439 301.189 76.8409 301.771C77.0409 302.349 77.1425 303.069 77.1456 303.931C77.1456 304.759 77.0625 305.496 76.8963 306.142C76.7301 306.786 76.4916 307.329 76.1807 307.772C75.8729 308.215 75.499 308.552 75.0589 308.783C74.6188 309.014 74.1233 309.129 73.5724 309.129C73.0092 309.129 72.5091 309.018 72.072 308.797C71.635 308.575 71.2795 308.269 71.0056 307.878C70.7317 307.484 70.5609 307.032 70.4932 306.521H71.9012C71.9936 306.927 72.1813 307.257 72.4644 307.509C72.7507 307.758 73.12 307.883 73.5724 307.883C74.2649 307.883 74.805 307.581 75.1928 306.978C75.5806 306.372 75.776 305.525 75.7791 304.439H75.7052C75.5452 304.704 75.3451 304.931 75.1051 305.122C74.8681 305.313 74.6019 305.461 74.3064 305.565C74.011 305.67 73.6955 305.722 73.36 305.722C72.8153 305.722 72.3198 305.588 71.8735 305.321C71.4273 305.053 71.0718 304.685 70.8071 304.217C70.5425 303.75 70.4101 303.216 70.4101 302.615C70.4101 302.018 70.5455 301.477 70.8164 300.99C71.0903 300.504 71.4719 300.119 71.9612 299.836C72.4537 299.55 73.0307 299.41 73.6924 299.416ZM73.697 300.616C73.337 300.616 73.0123 300.706 72.723 300.884C72.4367 301.06 72.2105 301.298 72.0443 301.6C71.8782 301.898 71.7951 302.231 71.7951 302.597C71.7951 302.963 71.8751 303.296 72.0351 303.594C72.1982 303.89 72.4198 304.125 72.6999 304.3C72.983 304.473 73.3062 304.559 73.6693 304.559C73.9402 304.559 74.1925 304.507 74.4264 304.402C74.6603 304.297 74.865 304.153 75.0404 303.968C75.2159 303.78 75.3528 303.568 75.4513 303.331C75.5498 303.094 75.599 302.845 75.599 302.583C75.599 302.235 75.5159 301.912 75.3497 301.614C75.1866 301.315 74.962 301.075 74.6757 300.893C74.3895 300.709 74.0633 300.616 73.697 300.616Z" fill="black"/>
<path d="M99.4583 309.129C98.8243 309.129 98.258 309.02 97.7595 308.801C97.264 308.583 96.8716 308.28 96.5823 307.892C96.296 307.501 96.1421 307.049 96.1206 306.535H97.5702C97.5886 306.815 97.6825 307.058 97.8518 307.264C98.0241 307.467 98.2488 307.624 98.5258 307.735C98.8028 307.846 99.1105 307.901 99.4491 307.901C99.8215 307.901 100.151 307.837 100.437 307.707C100.726 307.578 100.953 307.398 101.116 307.167C101.279 306.933 101.36 306.664 101.36 306.359C101.36 306.042 101.279 305.764 101.116 305.524C100.956 305.281 100.72 305.09 100.409 304.951C100.102 304.813 99.7292 304.744 99.2921 304.744H98.4935V303.58H99.2921C99.643 303.58 99.9507 303.517 100.215 303.391C100.483 303.265 100.692 303.089 100.843 302.865C100.994 302.637 101.069 302.371 101.069 302.066C101.069 301.774 101.003 301.52 100.871 301.304C100.742 301.086 100.557 300.915 100.317 300.792C100.08 300.669 99.7999 300.607 99.4768 300.607C99.169 300.607 98.8813 300.664 98.6135 300.778C98.3488 300.889 98.1334 301.049 97.9672 301.258C97.801 301.464 97.7118 301.712 97.6994 302.001H96.3191C96.3345 301.491 96.4853 301.041 96.7715 300.653C97.0608 300.266 97.4425 299.962 97.9164 299.744C98.3904 299.525 98.9167 299.416 99.4953 299.416C100.102 299.416 100.625 299.535 101.065 299.772C101.508 300.006 101.85 300.318 102.09 300.709C102.333 301.1 102.453 301.527 102.45 301.992C102.453 302.522 102.305 302.971 102.007 303.34C101.711 303.71 101.317 303.957 100.825 304.083V304.157C101.453 304.253 101.939 304.502 102.284 304.905C102.631 305.308 102.804 305.808 102.801 306.406C102.804 306.926 102.659 307.392 102.367 307.804C102.077 308.217 101.682 308.541 101.18 308.778C100.679 309.012 100.105 309.129 99.4583 309.129ZM107.837 309.157C107.108 309.154 106.485 308.962 105.968 308.58C105.451 308.198 105.055 307.643 104.781 306.913C104.507 306.184 104.37 305.305 104.37 304.277C104.37 303.252 104.507 302.377 104.781 301.651C105.058 300.924 105.455 300.37 105.972 299.989C106.492 299.607 107.114 299.416 107.837 299.416C108.56 299.416 109.181 299.609 109.698 299.993C110.215 300.375 110.61 300.929 110.884 301.655C111.161 302.378 111.3 303.252 111.3 304.277C111.3 305.308 111.163 306.189 110.889 306.918C110.615 307.644 110.219 308.2 109.702 308.585C109.185 308.966 108.564 309.157 107.837 309.157ZM107.837 307.924C108.477 307.924 108.977 307.612 109.338 306.987C109.701 306.362 109.882 305.459 109.882 304.277C109.882 303.493 109.799 302.829 109.633 302.288C109.47 301.743 109.234 301.33 108.927 301.05C108.622 300.767 108.259 300.626 107.837 300.626C107.2 300.626 106.7 300.94 106.337 301.567C105.974 302.195 105.791 303.099 105.788 304.277C105.788 305.065 105.869 305.732 106.032 306.276C106.198 306.818 106.434 307.229 106.739 307.509C107.043 307.786 107.409 307.924 107.837 307.924Z" fill="black"/>
<path d="M138.924 299.545V309H137.493V300.977H137.438L135.176 302.454V301.087L137.535 299.545H138.924Z" fill="#9C9D9F"/>
<path d="M168.279 309V307.966L171.478 304.651C171.819 304.291 172.101 303.976 172.323 303.705C172.547 303.431 172.715 303.171 172.826 302.925C172.937 302.679 172.992 302.417 172.992 302.14C172.992 301.826 172.918 301.555 172.77 301.327C172.623 301.097 172.421 300.92 172.166 300.797C171.91 300.67 171.622 300.607 171.302 300.607C170.964 300.607 170.668 300.676 170.416 300.815C170.164 300.953 169.97 301.149 169.834 301.401C169.699 301.654 169.631 301.949 169.631 302.288H168.269C168.269 301.712 168.402 301.209 168.666 300.778C168.931 300.347 169.294 300.013 169.756 299.776C170.218 299.536 170.742 299.416 171.33 299.416C171.924 299.416 172.447 299.535 172.9 299.772C173.355 300.006 173.711 300.326 173.966 300.732C174.222 301.135 174.349 301.591 174.349 302.098C174.349 302.449 174.283 302.792 174.151 303.128C174.021 303.463 173.795 303.837 173.472 304.25C173.149 304.659 172.7 305.156 172.124 305.741L170.245 307.707V307.777H174.502V309H168.279Z" fill="#9C9D9F"/>
<path d="M205.224 309.129C204.59 309.129 204.024 309.02 203.526 308.801C203.03 308.583 202.638 308.28 202.348 307.892C202.062 307.501 201.908 307.049 201.887 306.535H203.336C203.355 306.815 203.449 307.058 203.618 307.264C203.79 307.467 204.015 307.624 204.292 307.735C204.569 307.846 204.877 307.901 205.215 307.901C205.588 307.901 205.917 307.837 206.203 307.707C206.492 307.578 206.719 307.398 206.882 307.167C207.045 306.933 207.126 306.664 207.126 306.359C207.126 306.042 207.045 305.764 206.882 305.524C206.722 305.281 206.486 305.09 206.175 304.951C205.868 304.813 205.495 304.744 205.058 304.744H204.26V303.58H205.058C205.409 303.58 205.717 303.517 205.982 303.391C206.249 303.265 206.459 303.089 206.609 302.865C206.76 302.637 206.836 302.371 206.836 302.066C206.836 301.774 206.769 301.52 206.637 301.304C206.508 301.086 206.323 300.915 206.083 300.792C205.846 300.669 205.566 300.607 205.243 300.607C204.935 300.607 204.647 300.664 204.38 300.778C204.115 300.889 203.9 301.049 203.733 301.258C203.567 301.464 203.478 301.712 203.466 302.001H202.085C202.101 301.491 202.251 301.041 202.538 300.653C202.827 300.266 203.209 299.962 203.683 299.744C204.156 299.525 204.683 299.416 205.261 299.416C205.868 299.416 206.391 299.535 206.831 299.772C207.274 300.006 207.616 300.318 207.856 300.709C208.099 301.1 208.219 301.527 208.216 301.992C208.219 302.522 208.071 302.971 207.773 303.34C207.477 303.71 207.083 303.957 206.591 304.083V304.157C207.219 304.253 207.705 304.502 208.05 304.905C208.397 305.308 208.57 305.808 208.567 306.406C208.57 306.926 208.425 307.392 208.133 307.804C207.844 308.217 207.448 308.541 206.946 308.778C206.445 309.012 205.871 309.129 205.224 309.129Z" fill="#9C9D9F"/>
<path d="M235.528 307.153V305.999L239.614 299.545H240.523V301.244H239.946L237.024 305.87V305.944H242.624V307.153H235.528ZM240.011 309V306.803L240.02 306.276V299.545H241.373V309H240.011Z" fill="#9C9D9F"/>
</svg>
