<svg width="315" height="389" viewBox="0 0 315 389" fill="none" xmlns="http://www.w3.org/2000/svg">
<rect width="315" height="389" rx="12" fill="white"/>
<path d="M244.392 365V353.72H248.856C250.072 353.72 251 354.013 251.64 354.6C252.291 355.187 252.616 356.024 252.616 357.112C252.616 358.189 252.291 359.027 251.64 359.624C251 360.211 250.072 360.504 248.856 360.504H245.704V365H244.392ZM245.704 359.4H248.696C250.445 359.4 251.32 358.637 251.32 357.112C251.32 355.576 250.445 354.808 248.696 354.808H245.704V359.4ZM257.214 365.144C256.456 365.144 255.8 364.979 255.246 364.648C254.691 364.317 254.259 363.853 253.95 363.256C253.651 362.648 253.502 361.933 253.502 361.112C253.502 360.291 253.651 359.581 253.95 358.984C254.259 358.376 254.691 357.907 255.246 357.576C255.8 357.245 256.456 357.08 257.214 357.08C257.96 357.08 258.611 357.245 259.166 357.576C259.731 357.907 260.163 358.376 260.462 358.984C260.771 359.581 260.926 360.291 260.926 361.112C260.926 361.933 260.771 362.648 260.462 363.256C260.163 363.853 259.731 364.317 259.166 364.648C258.611 364.979 257.96 365.144 257.214 365.144ZM257.214 364.104C257.939 364.104 258.52 363.848 258.958 363.336C259.395 362.813 259.614 362.072 259.614 361.112C259.614 360.141 259.395 359.4 258.958 358.888C258.52 358.376 257.939 358.12 257.214 358.12C256.478 358.12 255.891 358.376 255.454 358.888C255.027 359.4 254.814 360.141 254.814 361.112C254.814 362.072 255.027 362.813 255.454 363.336C255.891 363.848 256.478 364.104 257.214 364.104ZM262.712 355.288V353.832H264.312V355.288H262.712ZM262.872 365V357.224H264.168V365H262.872ZM266.591 365V357.224H267.855V358.552C268.111 358.061 268.474 357.693 268.943 357.448C269.412 357.203 269.94 357.08 270.527 357.08C272.372 357.08 273.295 358.104 273.295 360.152V365H271.999V360.232C271.999 359.507 271.855 358.979 271.567 358.648C271.29 358.307 270.842 358.136 270.223 358.136C269.508 358.136 268.938 358.36 268.511 358.808C268.095 359.245 267.887 359.832 267.887 360.568V365H266.591ZM278.805 365.144C277.887 365.144 277.199 364.904 276.741 364.424C276.282 363.933 276.053 363.229 276.053 362.312V358.232H274.533V357.224H276.053V354.84H277.349V357.224H279.813V358.232H277.349V362.184C277.349 362.792 277.477 363.256 277.733 363.576C277.989 363.885 278.405 364.04 278.981 364.04C279.151 364.04 279.322 364.019 279.493 363.976C279.663 363.933 279.818 363.891 279.957 363.848L280.181 364.84C280.042 364.915 279.839 364.984 279.573 365.048C279.306 365.112 279.05 365.144 278.805 365.144ZM288.972 365.144C287.681 365.144 286.7 364.648 286.028 363.656C285.356 362.664 285.02 361.229 285.02 359.352C285.02 357.464 285.356 356.029 286.028 355.048C286.7 354.067 287.681 353.576 288.972 353.576C290.273 353.576 291.255 354.067 291.916 355.048C292.588 356.019 292.924 357.448 292.924 359.336C292.924 361.224 292.583 362.664 291.9 363.656C291.228 364.648 290.252 365.144 288.972 365.144ZM288.972 364.008C289.868 364.008 290.529 363.629 290.956 362.872C291.393 362.115 291.612 360.936 291.612 359.336C291.612 357.736 291.399 356.568 290.972 355.832C290.545 355.085 289.879 354.712 288.972 354.712C288.076 354.712 287.409 355.085 286.972 355.832C286.545 356.579 286.332 357.747 286.332 359.336C286.332 360.936 286.545 362.115 286.972 362.872C287.409 363.629 288.076 364.008 288.972 364.008ZM298.438 365.144C297.691 365.144 296.982 365.032 296.31 364.808C295.638 364.573 295.072 364.237 294.614 363.8L295.094 362.76C295.616 363.187 296.144 363.496 296.678 363.688C297.211 363.88 297.787 363.976 298.406 363.976C299.216 363.976 299.835 363.8 300.262 363.448C300.699 363.085 300.918 362.557 300.918 361.864C300.918 361.203 300.699 360.701 300.262 360.36C299.824 360.019 299.19 359.848 298.358 359.848H296.694V358.712H298.246C298.971 358.712 299.542 358.525 299.958 358.152C300.384 357.768 300.598 357.245 300.598 356.584C300.598 355.997 300.4 355.544 300.006 355.224C299.622 354.904 299.072 354.744 298.358 354.744C297.184 354.744 296.16 355.171 295.286 356.024L294.806 355C295.222 354.552 295.75 354.205 296.39 353.96C297.04 353.704 297.723 353.576 298.438 353.576C299.526 353.576 300.374 353.832 300.982 354.344C301.6 354.856 301.91 355.565 301.91 356.472C301.91 357.101 301.75 357.656 301.43 358.136C301.11 358.605 300.667 358.947 300.102 359.16C300.774 359.341 301.296 359.677 301.67 360.168C302.043 360.648 302.23 361.245 302.23 361.96C302.23 362.931 301.888 363.704 301.206 364.28C300.534 364.856 299.611 365.144 298.438 365.144Z" fill="#7C828A"/>
<path fill-rule="evenodd" clip-rule="evenodd" d="M231 365C233.761 365 236 362.761 236 360C236 357.239 233.761 355 231 355C228.239 355 226 357.239 226 360C226 362.761 228.239 365 231 365Z" fill="#EC6666"/>
<path d="M137.892 365V353.72H142.356C143.572 353.72 144.5 354.013 145.14 354.6C145.791 355.187 146.116 356.024 146.116 357.112C146.116 358.189 145.791 359.027 145.14 359.624C144.5 360.211 143.572 360.504 142.356 360.504H139.204V365H137.892ZM139.204 359.4H142.196C143.945 359.4 144.82 358.637 144.82 357.112C144.82 355.576 143.945 354.808 142.196 354.808H139.204V359.4ZM150.714 365.144C149.956 365.144 149.3 364.979 148.746 364.648C148.191 364.317 147.759 363.853 147.45 363.256C147.151 362.648 147.002 361.933 147.002 361.112C147.002 360.291 147.151 359.581 147.45 358.984C147.759 358.376 148.191 357.907 148.746 357.576C149.3 357.245 149.956 357.08 150.714 357.08C151.46 357.08 152.111 357.245 152.666 357.576C153.231 357.907 153.663 358.376 153.962 358.984C154.271 359.581 154.426 360.291 154.426 361.112C154.426 361.933 154.271 362.648 153.962 363.256C153.663 363.853 153.231 364.317 152.666 364.648C152.111 364.979 151.46 365.144 150.714 365.144ZM150.714 364.104C151.439 364.104 152.02 363.848 152.458 363.336C152.895 362.813 153.114 362.072 153.114 361.112C153.114 360.141 152.895 359.4 152.458 358.888C152.02 358.376 151.439 358.12 150.714 358.12C149.978 358.12 149.391 358.376 148.954 358.888C148.527 359.4 148.314 360.141 148.314 361.112C148.314 362.072 148.527 362.813 148.954 363.336C149.391 363.848 149.978 364.104 150.714 364.104ZM156.212 355.288V353.832H157.812V355.288H156.212ZM156.372 365V357.224H157.668V365H156.372ZM160.091 365V357.224H161.355V358.552C161.611 358.061 161.974 357.693 162.443 357.448C162.912 357.203 163.44 357.08 164.027 357.08C165.872 357.08 166.795 358.104 166.795 360.152V365H165.499V360.232C165.499 359.507 165.355 358.979 165.067 358.648C164.79 358.307 164.342 358.136 163.723 358.136C163.008 358.136 162.438 358.36 162.011 358.808C161.595 359.245 161.387 359.832 161.387 360.568V365H160.091ZM172.305 365.144C171.387 365.144 170.699 364.904 170.241 364.424C169.782 363.933 169.553 363.229 169.553 362.312V358.232H168.033V357.224H169.553V354.84H170.849V357.224H173.313V358.232H170.849V362.184C170.849 362.792 170.977 363.256 171.233 363.576C171.489 363.885 171.905 364.04 172.481 364.04C172.651 364.04 172.822 364.019 172.993 363.976C173.163 363.933 173.318 363.891 173.457 363.848L173.681 364.84C173.542 364.915 173.339 364.984 173.073 365.048C172.806 365.112 172.55 365.144 172.305 365.144ZM182.472 365.144C181.181 365.144 180.2 364.648 179.528 363.656C178.856 362.664 178.52 361.229 178.52 359.352C178.52 357.464 178.856 356.029 179.528 355.048C180.2 354.067 181.181 353.576 182.472 353.576C183.773 353.576 184.755 354.067 185.416 355.048C186.088 356.019 186.424 357.448 186.424 359.336C186.424 361.224 186.083 362.664 185.4 363.656C184.728 364.648 183.752 365.144 182.472 365.144ZM182.472 364.008C183.368 364.008 184.029 363.629 184.456 362.872C184.893 362.115 185.112 360.936 185.112 359.336C185.112 357.736 184.899 356.568 184.472 355.832C184.045 355.085 183.379 354.712 182.472 354.712C181.576 354.712 180.909 355.085 180.472 355.832C180.045 356.579 179.832 357.747 179.832 359.336C179.832 360.936 180.045 362.115 180.472 362.872C180.909 363.629 181.576 364.008 182.472 364.008ZM188.706 365V364.008L192.562 359.848C193.106 359.251 193.495 358.707 193.73 358.216C193.975 357.725 194.098 357.224 194.098 356.712C194.098 355.4 193.335 354.744 191.81 354.744C190.668 354.744 189.66 355.171 188.786 356.024L188.29 355C188.706 354.573 189.234 354.232 189.874 353.976C190.524 353.709 191.207 353.576 191.922 353.576C193.052 353.576 193.916 353.843 194.514 354.376C195.122 354.899 195.426 355.645 195.426 356.616C195.426 357.288 195.26 357.949 194.93 358.6C194.599 359.24 194.092 359.923 193.41 360.648L190.386 363.88H195.89V365H188.706Z" fill="#7C828A"/>
<path fill-rule="evenodd" clip-rule="evenodd" d="M124.5 365C127.261 365 129.5 362.761 129.5 360C129.5 357.239 127.261 355 124.5 355C121.739 355 119.5 357.239 119.5 360C119.5 362.761 121.739 365 124.5 365Z" fill="#79D2DE"/>
<path d="M31.392 365V353.72H35.856C37.072 353.72 38 354.013 38.64 354.6C39.2907 355.187 39.616 356.024 39.616 357.112C39.616 358.189 39.2907 359.027 38.64 359.624C38 360.211 37.072 360.504 35.856 360.504H32.704V365H31.392ZM32.704 359.4H35.696C37.4453 359.4 38.32 358.637 38.32 357.112C38.32 355.576 37.4453 354.808 35.696 354.808H32.704V359.4ZM44.2136 365.144C43.4563 365.144 42.8003 364.979 42.2456 364.648C41.691 364.317 41.259 363.853 40.9496 363.256C40.651 362.648 40.5016 361.933 40.5016 361.112C40.5016 360.291 40.651 359.581 40.9496 358.984C41.259 358.376 41.691 357.907 42.2456 357.576C42.8003 357.245 43.4563 357.08 44.2136 357.08C44.9603 357.08 45.611 357.245 46.1656 357.576C46.731 357.907 47.163 358.376 47.4616 358.984C47.771 359.581 47.9256 360.291 47.9256 361.112C47.9256 361.933 47.771 362.648 47.4616 363.256C47.163 363.853 46.731 364.317 46.1656 364.648C45.611 364.979 44.9603 365.144 44.2136 365.144ZM44.2136 364.104C44.939 364.104 45.5203 363.848 45.9576 363.336C46.395 362.813 46.6136 362.072 46.6136 361.112C46.6136 360.141 46.395 359.4 45.9576 358.888C45.5203 358.376 44.939 358.12 44.2136 358.12C43.4776 358.12 42.891 358.376 42.4536 358.888C42.027 359.4 41.8136 360.141 41.8136 361.112C41.8136 362.072 42.027 362.813 42.4536 363.336C42.891 363.848 43.4776 364.104 44.2136 364.104ZM49.7122 355.288V353.832H51.3123V355.288H49.7122ZM49.8723 365V357.224H51.1683V365H49.8723ZM53.591 365V357.224H54.855V358.552C55.111 358.061 55.4737 357.693 55.943 357.448C56.4123 357.203 56.9403 357.08 57.527 357.08C59.3723 357.08 60.295 358.104 60.295 360.152V365H58.999V360.232C58.999 359.507 58.855 358.979 58.567 358.648C58.2897 358.307 57.8417 358.136 57.223 358.136C56.5083 358.136 55.9377 358.36 55.511 358.808C55.095 359.245 54.887 359.832 54.887 360.568V365H53.591ZM65.8048 365.144C64.8874 365.144 64.1994 364.904 63.7408 364.424C63.2821 363.933 63.0528 363.229 63.0528 362.312V358.232H61.5328V357.224H63.0528V354.84H64.3488V357.224H66.8128V358.232H64.3488V362.184C64.3488 362.792 64.4768 363.256 64.7328 363.576C64.9888 363.885 65.4048 364.04 65.9808 364.04C66.1514 364.04 66.3221 364.019 66.4928 363.976C66.6634 363.933 66.8181 363.891 66.9568 363.848L67.1808 364.84C67.0421 364.915 66.8394 364.984 66.5728 365.048C66.3061 365.112 66.0501 365.144 65.8048 365.144ZM75.9719 365.144C74.6812 365.144 73.6999 364.648 73.0279 363.656C72.3559 362.664 72.0199 361.229 72.0199 359.352C72.0199 357.464 72.3559 356.029 73.0279 355.048C73.6999 354.067 74.6812 353.576 75.9719 353.576C77.2732 353.576 78.2545 354.067 78.9159 355.048C79.5879 356.019 79.9239 357.448 79.9239 359.336C79.9239 361.224 79.5825 362.664 78.8999 363.656C78.2279 364.648 77.2519 365.144 75.9719 365.144ZM75.9719 364.008C76.8679 364.008 77.5292 363.629 77.9559 362.872C78.3932 362.115 78.6119 360.936 78.6119 359.336C78.6119 357.736 78.3985 356.568 77.9719 355.832C77.5452 355.085 76.8785 354.712 75.9719 354.712C75.0759 354.712 74.4092 355.085 73.9719 355.832C73.5452 356.579 73.3319 357.747 73.3319 359.336C73.3319 360.936 73.5452 362.115 73.9719 362.872C74.4092 363.629 75.0759 364.008 75.9719 364.008ZM82.7496 365V363.88H85.3256V355.304L83.2936 356.584L82.7336 355.608L85.6936 353.72H86.6376V363.88H89.0536V365H82.7496Z" fill="#7C828A"/>
<path fill-rule="evenodd" clip-rule="evenodd" d="M18 365C20.7614 365 23 362.761 23 360C23 357.239 20.7614 355 18 355C15.2386 355 13 357.239 13 360C13 362.761 15.2386 365 18 365Z" fill="#147AD6"/>
<path d="M16.5 329L300.5 328.5" stroke="#D6D9DC" stroke-linecap="square"/>
<path d="M34.4214 274.38V273.048C33.8854 273.024 33.3774 272.932 32.8974 272.772C32.4254 272.612 32.0134 272.372 31.6614 272.052L32.0214 271.26C32.3974 271.572 32.7974 271.804 33.2214 271.956C33.6534 272.108 34.1534 272.184 34.7214 272.184C35.4014 272.184 35.9054 272.052 36.2334 271.788C36.5694 271.524 36.7374 271.18 36.7374 270.756C36.7374 270.404 36.6174 270.124 36.3774 269.916C36.1454 269.708 35.7494 269.544 35.1894 269.424L33.9894 269.172C33.2694 269.02 32.7294 268.764 32.3694 268.404C32.0174 268.036 31.8414 267.552 31.8414 266.952C31.8414 266.504 31.9454 266.104 32.1534 265.752C32.3694 265.392 32.6694 265.104 33.0534 264.888C33.4454 264.672 33.9014 264.544 34.4214 264.504V263.16H35.2374V264.504C35.6454 264.536 36.0494 264.636 36.4494 264.804C36.8574 264.972 37.2054 265.212 37.4934 265.524L37.1574 266.292C36.8374 265.964 36.4814 265.728 36.0894 265.584C35.6974 265.432 35.2614 265.356 34.7814 265.356C34.1894 265.356 33.7134 265.5 33.3534 265.788C32.9934 266.076 32.8134 266.456 32.8134 266.928C32.8134 267.304 32.9254 267.6 33.1494 267.816C33.3814 268.032 33.7454 268.192 34.2414 268.296L35.4414 268.56C36.2174 268.72 36.7934 268.972 37.1694 269.316C37.5454 269.66 37.7334 270.12 37.7334 270.696C37.7334 271.352 37.5014 271.888 37.0374 272.304C36.5734 272.712 35.9734 272.956 35.2374 273.036V274.38H34.4214ZM41.9047 273.108C40.9367 273.108 40.2007 272.736 39.6967 271.992C39.1927 271.248 38.9407 270.172 38.9407 268.764C38.9407 267.348 39.1927 266.272 39.6967 265.536C40.2007 264.8 40.9367 264.432 41.9047 264.432C42.8807 264.432 43.6167 264.8 44.1127 265.536C44.6167 266.264 44.8687 267.336 44.8687 268.752C44.8687 270.168 44.6127 271.248 44.1007 271.992C43.5967 272.736 42.8647 273.108 41.9047 273.108ZM41.9047 272.256C42.5767 272.256 43.0727 271.972 43.3927 271.404C43.7207 270.836 43.8847 269.952 43.8847 268.752C43.8847 267.552 43.7247 266.676 43.4047 266.124C43.0847 265.564 42.5847 265.284 41.9047 265.284C41.2327 265.284 40.7327 265.564 40.4047 266.124C40.0847 266.684 39.9247 267.56 39.9247 268.752C39.9247 269.952 40.0847 270.836 40.4047 271.404C40.7327 271.972 41.2327 272.256 41.9047 272.256ZM46.544 273V264.54H47.528V268.38H47.552L51.656 264.54H52.916L48.5 268.656L53.18 273H51.884L47.552 269.016H47.528V273H46.544Z" fill="#7C828A"/>
<path d="M27.2261 214.38V213.048C26.6901 213.024 26.1821 212.932 25.7021 212.772C25.2301 212.612 24.8181 212.372 24.4661 212.052L24.8261 211.26C25.2021 211.572 25.6021 211.804 26.0261 211.956C26.4581 212.108 26.9581 212.184 27.5261 212.184C28.2061 212.184 28.7101 212.052 29.0381 211.788C29.3741 211.524 29.5421 211.18 29.5421 210.756C29.5421 210.404 29.4221 210.124 29.1821 209.916C28.9501 209.708 28.5541 209.544 27.9941 209.424L26.7941 209.172C26.0741 209.02 25.5341 208.764 25.1741 208.404C24.8221 208.036 24.6461 207.552 24.6461 206.952C24.6461 206.504 24.7501 206.104 24.9581 205.752C25.1741 205.392 25.4741 205.104 25.8581 204.888C26.2501 204.672 26.7061 204.544 27.2261 204.504V203.16H28.0421V204.504C28.4501 204.536 28.8541 204.636 29.2541 204.804C29.6621 204.972 30.0101 205.212 30.2981 205.524L29.9621 206.292C29.6421 205.964 29.2861 205.728 28.8941 205.584C28.5021 205.432 28.0661 205.356 27.5861 205.356C26.9941 205.356 26.5181 205.5 26.1581 205.788C25.7981 206.076 25.6181 206.456 25.6181 206.928C25.6181 207.304 25.7301 207.6 25.9541 207.816C26.1861 208.032 26.5501 208.192 27.0461 208.296L28.2461 208.56C29.0221 208.72 29.5981 208.972 29.9741 209.316C30.3501 209.66 30.5381 210.12 30.5381 210.696C30.5381 211.352 30.3061 211.888 29.8421 212.304C29.3781 212.712 28.7781 212.956 28.0421 213.036V214.38H27.2261ZM32.1894 213V212.256L35.0814 209.136C35.4894 208.688 35.7814 208.28 35.9574 207.912C36.1414 207.544 36.2334 207.168 36.2334 206.784C36.2334 205.8 35.6614 205.308 34.5174 205.308C33.6614 205.308 32.9054 205.628 32.2494 206.268L31.8774 205.5C32.1894 205.18 32.5854 204.924 33.0654 204.732C33.5534 204.532 34.0654 204.432 34.6014 204.432C35.4494 204.432 36.0974 204.632 36.5454 205.032C37.0014 205.424 37.2294 205.984 37.2294 206.712C37.2294 207.216 37.1054 207.712 36.8574 208.2C36.6094 208.68 36.2294 209.192 35.7174 209.736L33.4494 212.16H37.5774V213H32.1894ZM42.0847 213.108C41.5407 213.108 41.0207 213.02 40.5247 212.844C40.0287 212.668 39.6087 212.42 39.2647 212.1L39.6367 211.32C40.3807 211.928 41.1927 212.232 42.0727 212.232C42.6567 212.232 43.1167 212.068 43.4527 211.74C43.7887 211.412 43.9567 210.98 43.9567 210.444C43.9567 209.892 43.7967 209.44 43.4767 209.088C43.1567 208.736 42.7167 208.56 42.1567 208.56C41.3487 208.56 40.7127 208.896 40.2487 209.568H39.5287V204.54H44.4367V205.38H40.5007V208.404C40.9647 207.94 41.5767 207.708 42.3367 207.708C42.8647 207.708 43.3247 207.82 43.7167 208.044C44.1087 208.268 44.4087 208.584 44.6167 208.992C44.8327 209.392 44.9407 209.86 44.9407 210.396C44.9407 210.924 44.8247 211.392 44.5927 211.8C44.3607 212.208 44.0287 212.528 43.5967 212.76C43.1727 212.992 42.6687 213.108 42.0847 213.108ZM46.544 213V204.54H47.528V208.38H47.552L51.656 204.54H52.916L48.5 208.656L53.18 213H51.884L47.552 209.016H47.528V213H46.544Z" fill="#7C828A"/>
<path d="M27.2261 154.38V153.048C26.6901 153.024 26.1821 152.932 25.7021 152.772C25.2301 152.612 24.8181 152.372 24.4661 152.052L24.8261 151.26C25.2021 151.572 25.6021 151.804 26.0261 151.956C26.4581 152.108 26.9581 152.184 27.5261 152.184C28.2061 152.184 28.7101 152.052 29.0381 151.788C29.3741 151.524 29.5421 151.18 29.5421 150.756C29.5421 150.404 29.4221 150.124 29.1821 149.916C28.9501 149.708 28.5541 149.544 27.9941 149.424L26.7941 149.172C26.0741 149.02 25.5341 148.764 25.1741 148.404C24.8221 148.036 24.6461 147.552 24.6461 146.952C24.6461 146.504 24.7501 146.104 24.9581 145.752C25.1741 145.392 25.4741 145.104 25.8581 144.888C26.2501 144.672 26.7061 144.544 27.2261 144.504V143.16H28.0421V144.504C28.4501 144.536 28.8541 144.636 29.2541 144.804C29.6621 144.972 30.0101 145.212 30.2981 145.524L29.9621 146.292C29.6421 145.964 29.2861 145.728 28.8941 145.584C28.5021 145.432 28.0661 145.356 27.5861 145.356C26.9941 145.356 26.5181 145.5 26.1581 145.788C25.7981 146.076 25.6181 146.456 25.6181 146.928C25.6181 147.304 25.7301 147.6 25.9541 147.816C26.1861 148.032 26.5501 148.192 27.0461 148.296L28.2461 148.56C29.0221 148.72 29.5981 148.972 29.9741 149.316C30.3501 149.66 30.5381 150.12 30.5381 150.696C30.5381 151.352 30.3061 151.888 29.8421 152.304C29.3781 152.712 28.7781 152.956 28.0421 153.036V154.38H27.2261ZM34.8894 153.108C34.3454 153.108 33.8254 153.02 33.3294 152.844C32.8334 152.668 32.4134 152.42 32.0694 152.1L32.4414 151.32C33.1854 151.928 33.9974 152.232 34.8774 152.232C35.4614 152.232 35.9214 152.068 36.2574 151.74C36.5934 151.412 36.7614 150.98 36.7614 150.444C36.7614 149.892 36.6014 149.44 36.2814 149.088C35.9614 148.736 35.5214 148.56 34.9614 148.56C34.1534 148.56 33.5174 148.896 33.0534 149.568H32.3334V144.54H37.2414V145.38H33.3054V148.404C33.7694 147.94 34.3814 147.708 35.1414 147.708C35.6694 147.708 36.1294 147.82 36.5214 148.044C36.9134 148.268 37.2134 148.584 37.4214 148.992C37.6374 149.392 37.7454 149.86 37.7454 150.396C37.7454 150.924 37.6294 151.392 37.3974 151.8C37.1654 152.208 36.8334 152.528 36.4014 152.76C35.9774 152.992 35.4734 153.108 34.8894 153.108ZM41.9047 153.108C40.9367 153.108 40.2007 152.736 39.6967 151.992C39.1927 151.248 38.9407 150.172 38.9407 148.764C38.9407 147.348 39.1927 146.272 39.6967 145.536C40.2007 144.8 40.9367 144.432 41.9047 144.432C42.8807 144.432 43.6167 144.8 44.1127 145.536C44.6167 146.264 44.8687 147.336 44.8687 148.752C44.8687 150.168 44.6127 151.248 44.1007 151.992C43.5967 152.736 42.8647 153.108 41.9047 153.108ZM41.9047 152.256C42.5767 152.256 43.0727 151.972 43.3927 151.404C43.7207 150.836 43.8847 149.952 43.8847 148.752C43.8847 147.552 43.7247 146.676 43.4047 146.124C43.0847 145.564 42.5847 145.284 41.9047 145.284C41.2327 145.284 40.7327 145.564 40.4047 146.124C40.0847 146.684 39.9247 147.56 39.9247 148.752C39.9247 149.952 40.0847 150.836 40.4047 151.404C40.7327 151.972 41.2327 152.256 41.9047 152.256ZM46.544 153V144.54H47.528V148.38H47.552L51.656 144.54H52.916L48.5 148.656L53.18 153H51.884L47.552 149.016H47.528V153H46.544Z" fill="#7C828A"/>
<path d="M27.2261 94.38V93.048C26.6901 93.024 26.1821 92.932 25.7021 92.772C25.2301 92.612 24.8181 92.372 24.4661 92.052L24.8261 91.26C25.2021 91.572 25.6021 91.804 26.0261 91.956C26.4581 92.108 26.9581 92.184 27.5261 92.184C28.2061 92.184 28.7101 92.052 29.0381 91.788C29.3741 91.524 29.5421 91.18 29.5421 90.756C29.5421 90.404 29.4221 90.124 29.1821 89.916C28.9501 89.708 28.5541 89.544 27.9941 89.424L26.7941 89.172C26.0741 89.02 25.5341 88.764 25.1741 88.404C24.8221 88.036 24.6461 87.552 24.6461 86.952C24.6461 86.504 24.7501 86.104 24.9581 85.752C25.1741 85.392 25.4741 85.104 25.8581 84.888C26.2501 84.672 26.7061 84.544 27.2261 84.504V83.16H28.0421V84.504C28.4501 84.536 28.8541 84.636 29.2541 84.804C29.6621 84.972 30.0101 85.212 30.2981 85.524L29.9621 86.292C29.6421 85.964 29.2861 85.728 28.8941 85.584C28.5021 85.432 28.0661 85.356 27.5861 85.356C26.9941 85.356 26.5181 85.5 26.1581 85.788C25.7981 86.076 25.6181 86.456 25.6181 86.928C25.6181 87.304 25.7301 87.6 25.9541 87.816C26.1861 88.032 26.5501 88.192 27.0461 88.296L28.2461 88.56C29.0221 88.72 29.5981 88.972 29.9741 89.316C30.3501 89.66 30.5381 90.12 30.5381 90.696C30.5381 91.352 30.3061 91.888 29.8421 92.304C29.3781 92.712 28.7781 92.956 28.0421 93.036V94.38H27.2261ZM32.4534 93L36.3894 85.392H31.9134V84.54H37.5054V85.284L33.5454 93H32.4534ZM42.0847 93.108C41.5407 93.108 41.0207 93.02 40.5247 92.844C40.0287 92.668 39.6087 92.42 39.2647 92.1L39.6367 91.32C40.3807 91.928 41.1927 92.232 42.0727 92.232C42.6567 92.232 43.1167 92.068 43.4527 91.74C43.7887 91.412 43.9567 90.98 43.9567 90.444C43.9567 89.892 43.7967 89.44 43.4767 89.088C43.1567 88.736 42.7167 88.56 42.1567 88.56C41.3487 88.56 40.7127 88.896 40.2487 89.568H39.5287V84.54H44.4367V85.38H40.5007V88.404C40.9647 87.94 41.5767 87.708 42.3367 87.708C42.8647 87.708 43.3247 87.82 43.7167 88.044C44.1087 88.268 44.4087 88.584 44.6167 88.992C44.8327 89.392 44.9407 89.86 44.9407 90.396C44.9407 90.924 44.8247 91.392 44.5927 91.8C44.3607 92.208 44.0287 92.528 43.5967 92.76C43.1727 92.992 42.6687 93.108 42.0847 93.108ZM46.544 93V84.54H47.528V88.38H47.552L51.656 84.54H52.916L48.5 88.656L53.18 93H51.884L47.552 89.016H47.528V93H46.544Z" fill="#7C828A"/>
<path d="M273.666 303.12L273.534 301.608L274.458 301.56C275.098 301.52 275.418 301.184 275.418 300.552V294.54H277.278V300.528C277.278 302.112 276.438 302.96 274.758 303.072L273.666 303.12ZM280.999 303.132C280.247 303.132 279.691 302.924 279.331 302.508C278.979 302.092 278.803 301.468 278.803 300.636V297.108H280.615V300.684C280.615 301.38 280.915 301.728 281.515 301.728C281.859 301.728 282.139 301.608 282.355 301.368C282.579 301.12 282.691 300.796 282.691 300.396V297.108H284.503V303H282.739V302.196C282.347 302.82 281.767 303.132 280.999 303.132ZM285.905 303V297.108H287.681V297.972C287.881 297.652 288.149 297.408 288.485 297.24C288.821 297.072 289.197 296.988 289.613 296.988C290.309 296.988 290.829 297.192 291.173 297.6C291.517 298 291.689 298.62 291.689 299.46V303H289.877V299.544C289.877 299.136 289.801 298.844 289.649 298.668C289.497 298.484 289.273 298.392 288.977 298.392C288.593 298.392 288.285 298.512 288.053 298.752C287.829 298.992 287.717 299.312 287.717 299.712V303H285.905Z" fill="black"/>
<path d="M232.11 303V294.54H233.658L236.514 299.736L239.358 294.54H240.882V303H239.19V297.84L237.006 301.728H235.962L233.79 297.876V303H232.11ZM244.434 303.132C243.994 303.132 243.606 303.048 243.27 302.88C242.934 302.712 242.666 302.484 242.466 302.196C242.274 301.908 242.178 301.584 242.178 301.224C242.178 300.8 242.29 300.46 242.514 300.204C242.738 299.948 243.102 299.768 243.606 299.664C244.11 299.552 244.778 299.496 245.61 299.496H246.042V299.292C246.042 298.94 245.962 298.692 245.802 298.548C245.642 298.396 245.37 298.32 244.986 298.32C244.666 298.32 244.326 298.372 243.966 298.476C243.614 298.572 243.262 298.72 242.91 298.92L242.418 297.708C242.626 297.572 242.878 297.448 243.174 297.336C243.478 297.224 243.794 297.14 244.122 297.084C244.45 297.02 244.762 296.988 245.058 296.988C245.97 296.988 246.65 297.196 247.098 297.612C247.546 298.02 247.77 298.656 247.77 299.52V303H246.078V302.112C245.958 302.424 245.754 302.672 245.466 302.856C245.186 303.04 244.842 303.132 244.434 303.132ZM244.842 301.92C245.178 301.92 245.462 301.804 245.694 301.572C245.926 301.34 246.042 301.04 246.042 300.672V300.432H245.622C245.006 300.432 244.57 300.488 244.314 300.6C244.058 300.704 243.93 300.888 243.93 301.152C243.93 301.376 244.006 301.56 244.158 301.704C244.318 301.848 244.546 301.92 244.842 301.92ZM249.519 305.16L250.647 302.676L248.223 297.108H250.131L251.607 300.852L253.131 297.108H254.931L251.367 305.16H249.519Z" fill="black"/>
<path d="M192.228 303L196.116 294.54H197.616L201.504 303H199.632L198.84 301.164H194.892L194.112 303H192.228ZM196.848 296.52L195.516 299.712H198.228L196.872 296.52H196.848ZM202.079 305.16V297.108H203.855V297.984C204.015 297.68 204.259 297.44 204.587 297.264C204.923 297.08 205.299 296.988 205.715 296.988C206.227 296.988 206.675 297.112 207.059 297.36C207.451 297.608 207.755 297.96 207.971 298.416C208.187 298.872 208.295 299.416 208.295 300.048C208.295 300.68 208.187 301.228 207.971 301.692C207.755 302.148 207.451 302.504 207.059 302.76C206.675 303.008 206.227 303.132 205.715 303.132C205.323 303.132 204.963 303.048 204.635 302.88C204.315 302.712 204.067 302.488 203.891 302.208V305.16H202.079ZM205.175 301.776C205.559 301.776 205.871 301.636 206.111 301.356C206.351 301.076 206.471 300.64 206.471 300.048C206.471 299.464 206.351 299.036 206.111 298.764C205.871 298.484 205.559 298.344 205.175 298.344C204.783 298.344 204.467 298.484 204.227 298.764C203.987 299.036 203.867 299.464 203.867 300.048C203.867 300.64 203.987 301.076 204.227 301.356C204.467 301.636 204.783 301.776 205.175 301.776ZM209.403 303V297.108H211.179V298.128C211.459 297.44 212.059 297.06 212.979 296.988L213.507 296.952L213.615 298.476L212.595 298.584C211.699 298.672 211.251 299.128 211.251 299.952V303H209.403Z" fill="black"/>
<path d="M153.308 303V294.54H154.856L157.712 299.736L160.556 294.54H162.08V303H160.388V297.84L158.204 301.728H157.16L154.988 297.876V303H153.308ZM165.631 303.132C165.191 303.132 164.803 303.048 164.467 302.88C164.131 302.712 163.863 302.484 163.663 302.196C163.471 301.908 163.375 301.584 163.375 301.224C163.375 300.8 163.487 300.46 163.711 300.204C163.935 299.948 164.299 299.768 164.803 299.664C165.307 299.552 165.975 299.496 166.807 299.496H167.239V299.292C167.239 298.94 167.159 298.692 166.999 298.548C166.839 298.396 166.567 298.32 166.183 298.32C165.863 298.32 165.523 298.372 165.163 298.476C164.811 298.572 164.459 298.72 164.107 298.92L163.615 297.708C163.823 297.572 164.075 297.448 164.371 297.336C164.675 297.224 164.991 297.14 165.319 297.084C165.647 297.02 165.959 296.988 166.255 296.988C167.167 296.988 167.847 297.196 168.295 297.612C168.743 298.02 168.967 298.656 168.967 299.52V303H167.275V302.112C167.155 302.424 166.951 302.672 166.663 302.856C166.383 303.04 166.039 303.132 165.631 303.132ZM166.039 301.92C166.375 301.92 166.659 301.804 166.891 301.572C167.123 301.34 167.239 301.04 167.239 300.672V300.432H166.819C166.203 300.432 165.767 300.488 165.511 300.6C165.255 300.704 165.127 300.888 165.127 301.152C165.127 301.376 165.203 301.56 165.355 301.704C165.515 301.848 165.743 301.92 166.039 301.92ZM170.319 303V297.108H172.095V298.128C172.375 297.44 172.975 297.06 173.895 296.988L174.423 296.952L174.531 298.476L173.511 298.584C172.615 298.672 172.167 299.128 172.167 299.952V303H170.319Z" fill="black"/>
<path d="M116.575 303V294.54H122.287V295.992H118.435V298.056H122.023V299.508H118.435V303H116.575ZM126.123 303.132C125.427 303.132 124.827 303.008 124.323 302.76C123.827 302.504 123.443 302.148 123.171 301.692C122.907 301.228 122.775 300.684 122.775 300.06C122.775 299.452 122.903 298.92 123.159 298.464C123.423 298 123.779 297.64 124.227 297.384C124.683 297.12 125.207 296.988 125.799 296.988C126.655 296.988 127.335 297.26 127.839 297.804C128.343 298.34 128.595 299.068 128.595 299.988V300.444H124.503C124.567 300.908 124.735 301.248 125.007 301.464C125.287 301.672 125.671 301.776 126.159 301.776C126.479 301.776 126.803 301.728 127.131 301.632C127.459 301.536 127.755 301.388 128.019 301.188L128.499 302.4C128.203 302.624 127.839 302.804 127.407 302.94C126.983 303.068 126.555 303.132 126.123 303.132ZM125.871 298.188C125.487 298.188 125.175 298.304 124.935 298.536C124.703 298.768 124.559 299.092 124.503 299.508H127.095C127.047 298.628 126.639 298.188 125.871 298.188ZM133.285 303.132C132.869 303.132 132.493 303.04 132.157 302.856C131.829 302.672 131.585 302.428 131.425 302.124V303H129.649V294.54H131.461V297.9C131.637 297.62 131.885 297.4 132.205 297.24C132.533 297.072 132.893 296.988 133.285 296.988C133.797 296.988 134.245 297.112 134.629 297.36C135.021 297.608 135.325 297.96 135.541 298.416C135.757 298.872 135.865 299.416 135.865 300.048C135.865 300.68 135.757 301.228 135.541 301.692C135.325 302.148 135.021 302.504 134.629 302.76C134.245 303.008 133.797 303.132 133.285 303.132ZM132.745 301.776C133.129 301.776 133.441 301.636 133.681 301.356C133.921 301.076 134.041 300.64 134.041 300.048C134.041 299.464 133.921 299.036 133.681 298.764C133.441 298.484 133.129 298.344 132.745 298.344C132.353 298.344 132.037 298.484 131.797 298.764C131.557 299.036 131.437 299.464 131.437 300.048C131.437 300.64 131.557 301.076 131.797 301.356C132.037 301.636 132.353 301.776 132.745 301.776Z" fill="black"/>
<path d="M75.8655 303.12L75.7335 301.608L76.6575 301.56C77.2975 301.52 77.6175 301.184 77.6175 300.552V294.54H79.4775V300.528C79.4775 302.112 78.6375 302.96 76.9575 303.072L75.8655 303.12ZM83.0181 303.132C82.5781 303.132 82.1901 303.048 81.8541 302.88C81.5181 302.712 81.2501 302.484 81.0501 302.196C80.8581 301.908 80.7621 301.584 80.7621 301.224C80.7621 300.8 80.8741 300.46 81.0981 300.204C81.3221 299.948 81.6861 299.768 82.1901 299.664C82.6941 299.552 83.3621 299.496 84.1941 299.496H84.6261V299.292C84.6261 298.94 84.5461 298.692 84.3861 298.548C84.2261 298.396 83.9541 298.32 83.5701 298.32C83.2501 298.32 82.9101 298.372 82.5501 298.476C82.1981 298.572 81.8461 298.72 81.4941 298.92L81.0021 297.708C81.2101 297.572 81.4621 297.448 81.7581 297.336C82.0621 297.224 82.3781 297.14 82.7061 297.084C83.0341 297.02 83.3461 296.988 83.6421 296.988C84.5541 296.988 85.2341 297.196 85.6821 297.612C86.1301 298.02 86.3541 298.656 86.3541 299.52V303H84.6621V302.112C84.5421 302.424 84.3381 302.672 84.0501 302.856C83.7701 303.04 83.4261 303.132 83.0181 303.132ZM83.4261 301.92C83.7621 301.92 84.0461 301.804 84.2781 301.572C84.5101 301.34 84.6261 301.04 84.6261 300.672V300.432H84.2061C83.5901 300.432 83.1541 300.488 82.8981 300.6C82.6421 300.704 82.5141 300.888 82.5141 301.152C82.5141 301.376 82.5901 301.56 82.7421 301.704C82.9021 301.848 83.1301 301.92 83.4261 301.92ZM87.7058 303V297.108H89.4818V297.972C89.6818 297.652 89.9498 297.408 90.2858 297.24C90.6218 297.072 90.9978 296.988 91.4138 296.988C92.1098 296.988 92.6298 297.192 92.9738 297.6C93.3178 298 93.4898 298.62 93.4898 299.46V303H91.6778V299.544C91.6778 299.136 91.6018 298.844 91.4498 298.668C91.2978 298.484 91.0738 298.392 90.7778 298.392C90.3938 298.392 90.0858 298.512 89.8538 298.752C89.6298 298.992 89.5178 299.312 89.5178 299.712V303H87.7058Z" fill="black"/>
<rect x="279" y="122" width="8" height="33" rx="4" fill="#EC6666"/>
<rect x="239" y="108" width="8" height="42" rx="4" fill="#EC6666"/>
<rect x="199" y="159" width="8" height="49" rx="4" fill="#EC6666"/>
<rect x="160" y="118" width="8" height="25" rx="4" fill="#EC6666"/>
<rect x="122" y="94" width="8" height="49" rx="4" fill="#EC6666"/>
<rect x="81" y="151" width="8" height="49" rx="4" fill="#EC6666"/>
<rect x="279" y="156" width="8" height="76" rx="4" fill="#79D2DE"/>
<rect x="239" y="151" width="8" height="87" rx="4" fill="#79D2DE"/>
<rect x="199" y="209" width="8" height="44" rx="4" fill="#79D2DE"/>
<rect x="160" y="144" width="8" height="82" rx="4" fill="#79D2DE"/>
<rect x="122" y="144" width="8" height="98" rx="4" fill="#79D2DE"/>
<rect x="81" y="201" width="8" height="49" rx="4" fill="#79D2DE"/>
<rect x="279" y="233" width="8" height="43" rx="4" fill="#147AD6"/>
<rect x="239" y="239" width="8" height="37" rx="4" fill="#147AD6"/>
<rect x="199" y="254" width="8" height="22" rx="4" fill="#147AD6"/>
<rect x="160" y="226" width="8" height="50" rx="4" fill="#147AD6"/>
<rect x="122" y="243" width="8" height="33" rx="4" fill="#147AD6"/>
<rect x="81" y="251" width="8" height="25" rx="4" fill="#147AD6"/>
<path d="M61.201 41.22C59.5877 41.22 58.2017 40.8973 57.043 40.252C55.899 39.592 55.019 38.668 54.403 37.48C53.787 36.2773 53.479 34.862 53.479 33.234C53.479 31.606 53.787 30.198 54.403 29.01C55.019 27.822 55.899 26.9053 57.043 26.26C58.2017 25.6 59.5877 25.27 61.201 25.27C62.2423 25.27 63.225 25.4313 64.149 25.754C65.0877 26.0767 65.8577 26.5387 66.459 27.14L65.535 29.384C64.875 28.8267 64.2003 28.4233 63.511 28.174C62.8217 27.91 62.081 27.778 61.289 27.778C59.7197 27.778 58.5243 28.2547 57.703 29.208C56.8817 30.1467 56.471 31.4887 56.471 33.234C56.471 34.9793 56.8817 36.3287 57.703 37.282C58.5243 38.2353 59.7197 38.712 61.289 38.712C62.081 38.712 62.8217 38.5873 63.511 38.338C64.2003 38.074 64.875 37.6633 65.535 37.106L66.459 39.35C65.8577 39.9367 65.0877 40.3987 64.149 40.736C63.225 41.0587 62.2423 41.22 61.201 41.22ZM68.6527 41V25.49H71.4027V31.804C71.7693 31.2173 72.2607 30.7773 72.8767 30.484C73.4927 30.176 74.1747 30.022 74.9227 30.022C77.46 30.022 78.7287 31.496 78.7287 34.444V41H75.9787V34.576C75.9787 33.74 75.8173 33.1313 75.4947 32.75C75.1867 32.3687 74.7027 32.178 74.0427 32.178C73.236 32.178 72.5907 32.4347 72.1067 32.948C71.6373 33.4467 71.4027 34.114 71.4027 34.95V41H68.6527ZM85.0638 41.22C84.2865 41.22 83.5898 41.0733 82.9738 40.78C82.3725 40.472 81.8958 40.0613 81.5438 39.548C81.2065 39.0347 81.0378 38.4553 81.0378 37.81C81.0378 37.018 81.2431 36.3947 81.6538 35.94C82.0645 35.4707 82.7318 35.1333 83.6558 34.928C84.5798 34.7227 85.8191 34.62 87.3738 34.62H88.1438V34.158C88.1438 33.4247 87.9825 32.8967 87.6598 32.574C87.3371 32.2513 86.7945 32.09 86.0318 32.09C85.4305 32.09 84.8145 32.1853 84.1838 32.376C83.5531 32.552 82.9151 32.8307 82.2698 33.212L81.4778 31.342C81.8591 31.078 82.3065 30.8507 82.8198 30.66C83.3478 30.4547 83.8978 30.3007 84.4698 30.198C85.0565 30.0807 85.6065 30.022 86.1198 30.022C87.6891 30.022 88.8551 30.3887 89.6178 31.122C90.3805 31.8407 90.7618 32.9627 90.7618 34.488V41H88.1878V39.284C87.9385 39.8853 87.5425 40.362 86.9998 40.714C86.4571 41.0513 85.8118 41.22 85.0638 41.22ZM85.6358 39.328C86.3545 39.328 86.9485 39.0787 87.4178 38.58C87.9018 38.0813 88.1438 37.4507 88.1438 36.688V36.204H87.3958C86.0171 36.204 85.0565 36.314 84.5138 36.534C83.9858 36.7393 83.7218 37.1207 83.7218 37.678C83.7218 38.162 83.8905 38.558 84.2278 38.866C84.5651 39.174 85.0345 39.328 85.6358 39.328ZM93.553 41V30.242H96.237V32.134C96.765 30.858 97.8944 30.154 99.625 30.022L100.461 29.956L100.637 32.288L99.053 32.442C97.249 32.618 96.347 33.542 96.347 35.214V41H93.553ZM107.719 41.22C104.874 41.22 103.451 39.812 103.451 36.996V32.31H101.383V30.242H103.451V27.03H106.201V30.242H109.457V32.31H106.201V36.842C106.201 37.546 106.355 38.074 106.663 38.426C106.971 38.778 107.47 38.954 108.159 38.954C108.365 38.954 108.577 38.932 108.797 38.888C109.017 38.8293 109.245 38.7707 109.479 38.712L109.897 40.736C109.633 40.8827 109.296 41 108.885 41.088C108.489 41.176 108.101 41.22 107.719 41.22ZM122.092 41.22C119.247 41.22 117.824 39.812 117.824 36.996V32.31H115.756V30.242H117.824V27.03H120.574V30.242H123.83V32.31H120.574V36.842C120.574 37.546 120.728 38.074 121.036 38.426C121.344 38.778 121.843 38.954 122.532 38.954C122.738 38.954 122.95 38.932 123.17 38.888C123.39 38.8293 123.618 38.7707 123.852 38.712L124.27 40.736C124.006 40.8827 123.669 41 123.258 41.088C122.862 41.176 122.474 41.22 122.092 41.22ZM125.432 27.932V25.248H128.512V27.932H125.432ZM125.608 41V30.242H128.358V41H125.608ZM136.143 41.22C133.298 41.22 131.875 39.812 131.875 36.996V32.31H129.807V30.242H131.875V27.03H134.625V30.242H137.881V32.31H134.625V36.842C134.625 37.546 134.779 38.074 135.087 38.426C135.395 38.778 135.894 38.954 136.583 38.954C136.788 38.954 137.001 38.932 137.221 38.888C137.441 38.8293 137.668 38.7707 137.903 38.712L138.321 40.736C138.057 40.8827 137.72 41 137.309 41.088C136.913 41.176 136.524 41.22 136.143 41.22ZM143.399 41.22C142.123 41.22 141.177 40.8753 140.561 40.186C139.959 39.482 139.659 38.4553 139.659 37.106V25.49H142.409V36.974C142.409 38.294 142.966 38.954 144.081 38.954C144.242 38.954 144.403 38.9467 144.565 38.932C144.726 38.9173 144.88 38.888 145.027 38.844L144.983 41.022C144.455 41.154 143.927 41.22 143.399 41.22ZM151.878 41.22C150.661 41.22 149.612 40.9927 148.732 40.538C147.852 40.0833 147.17 39.438 146.686 38.602C146.217 37.766 145.982 36.776 145.982 35.632C145.982 34.5173 146.21 33.542 146.664 32.706C147.134 31.87 147.772 31.2173 148.578 30.748C149.4 30.264 150.331 30.022 151.372 30.022C152.898 30.022 154.1 30.506 154.98 31.474C155.875 32.442 156.322 33.762 156.322 35.434V36.248H148.622C148.828 38.1693 149.928 39.13 151.922 39.13C152.524 39.13 153.125 39.042 153.726 38.866C154.328 38.6753 154.878 38.382 155.376 37.986L156.146 39.834C155.633 40.2593 154.988 40.5967 154.21 40.846C153.433 41.0953 152.656 41.22 151.878 41.22ZM151.482 31.892C150.676 31.892 150.023 32.1413 149.524 32.64C149.026 33.1387 148.725 33.8133 148.622 34.664H154.034C153.976 33.7693 153.726 33.0873 153.286 32.618C152.861 32.134 152.26 31.892 151.482 31.892ZM169.446 45.18C168.449 45.18 167.51 45.0627 166.63 44.828C165.765 44.608 165.002 44.2633 164.342 43.794L165.134 41.88C165.75 42.2907 166.41 42.5913 167.114 42.782C167.818 42.9873 168.522 43.09 169.226 43.09C171.191 43.09 172.174 42.144 172.174 40.252V38.778C171.866 39.3793 171.389 39.856 170.744 40.208C170.113 40.56 169.409 40.736 168.632 40.736C167.664 40.736 166.821 40.516 166.102 40.076C165.383 39.6213 164.826 38.9907 164.43 38.184C164.034 37.3773 163.836 36.4387 163.836 35.368C163.836 34.2973 164.034 33.366 164.43 32.574C164.826 31.7673 165.383 31.144 166.102 30.704C166.821 30.2493 167.664 30.022 168.632 30.022C169.439 30.022 170.157 30.2053 170.788 30.572C171.419 30.924 171.881 31.4007 172.174 32.002V30.242H174.858V39.922C174.858 41.6673 174.396 42.98 173.472 43.86C172.548 44.74 171.206 45.18 169.446 45.18ZM169.38 38.646C170.231 38.646 170.905 38.3527 171.404 37.766C171.903 37.1793 172.152 36.38 172.152 35.368C172.152 34.356 171.903 33.564 171.404 32.992C170.905 32.4053 170.231 32.112 169.38 32.112C168.529 32.112 167.855 32.4053 167.356 32.992C166.857 33.564 166.608 34.356 166.608 35.368C166.608 36.38 166.857 37.1793 167.356 37.766C167.855 38.3527 168.529 38.646 169.38 38.646ZM182.613 41.22C181.499 41.22 180.531 40.9927 179.709 40.538C178.888 40.0833 178.25 39.438 177.795 38.602C177.341 37.7513 177.113 36.754 177.113 35.61C177.113 34.466 177.341 33.476 177.795 32.64C178.25 31.804 178.888 31.1587 179.709 30.704C180.531 30.2493 181.499 30.022 182.613 30.022C183.728 30.022 184.696 30.2493 185.517 30.704C186.339 31.1587 186.977 31.804 187.431 32.64C187.886 33.476 188.113 34.466 188.113 35.61C188.113 36.754 187.886 37.7513 187.431 38.602C186.977 39.438 186.339 40.0833 185.517 40.538C184.696 40.9927 183.728 41.22 182.613 41.22ZM182.613 39.13C183.435 39.13 184.095 38.8367 184.593 38.25C185.092 37.6487 185.341 36.7687 185.341 35.61C185.341 34.4367 185.092 33.564 184.593 32.992C184.095 32.4053 183.435 32.112 182.613 32.112C181.792 32.112 181.132 32.4053 180.633 32.992C180.135 33.564 179.885 34.4367 179.885 35.61C179.885 36.7687 180.135 37.6487 180.633 38.25C181.132 38.8367 181.792 39.13 182.613 39.13ZM195.685 41.22C194.468 41.22 193.419 40.9927 192.539 40.538C191.659 40.0833 190.977 39.438 190.493 38.602C190.024 37.766 189.789 36.776 189.789 35.632C189.789 34.5173 190.016 33.542 190.471 32.706C190.94 31.87 191.578 31.2173 192.385 30.748C193.206 30.264 194.138 30.022 195.179 30.022C196.704 30.022 197.907 30.506 198.787 31.474C199.682 32.442 200.129 33.762 200.129 35.434V36.248H192.429C192.634 38.1693 193.734 39.13 195.729 39.13C196.33 39.13 196.932 39.042 197.533 38.866C198.134 38.6753 198.684 38.382 199.183 37.986L199.953 39.834C199.44 40.2593 198.794 40.5967 198.017 40.846C197.24 41.0953 196.462 41.22 195.685 41.22ZM195.289 31.892C194.482 31.892 193.83 32.1413 193.331 32.64C192.832 33.1387 192.532 33.8133 192.429 34.664H197.841C197.782 33.7693 197.533 33.0873 197.093 32.618C196.668 32.134 196.066 31.892 195.289 31.892ZM206.245 41.22C205.336 41.22 204.485 41.11 203.693 40.89C202.901 40.67 202.241 40.3547 201.713 39.944L202.417 38.14C202.96 38.5067 203.568 38.7927 204.243 38.998C204.918 39.1887 205.592 39.284 206.267 39.284C206.971 39.284 207.492 39.1667 207.829 38.932C208.181 38.6827 208.357 38.36 208.357 37.964C208.357 37.348 207.902 36.952 206.993 36.776L204.793 36.358C202.93 36.006 201.999 35.038 201.999 33.454C201.999 32.75 202.19 32.1413 202.571 31.628C202.967 31.1147 203.51 30.7187 204.199 30.44C204.888 30.1613 205.68 30.022 206.575 30.022C207.338 30.022 208.071 30.132 208.775 30.352C209.479 30.5573 210.08 30.8727 210.579 31.298L209.831 33.102C209.406 32.75 208.892 32.4713 208.291 32.266C207.704 32.0607 207.14 31.958 206.597 31.958C205.878 31.958 205.343 32.0827 204.991 32.332C204.654 32.5813 204.485 32.9113 204.485 33.322C204.485 33.9673 204.903 34.3633 205.739 34.51L207.939 34.928C208.892 35.104 209.611 35.4267 210.095 35.896C210.594 36.3653 210.843 36.996 210.843 37.788C210.843 38.8587 210.425 39.702 209.589 40.318C208.753 40.9193 207.638 41.22 206.245 41.22ZM218.979 41V25.49H221.729V31.804C222.095 31.2173 222.587 30.7773 223.203 30.484C223.819 30.176 224.501 30.022 225.249 30.022C227.786 30.022 229.055 31.496 229.055 34.444V41H226.305V34.576C226.305 33.74 226.143 33.1313 225.821 32.75C225.513 32.3687 225.029 32.178 224.369 32.178C223.562 32.178 222.917 32.4347 222.433 32.948C221.963 33.4467 221.729 34.114 221.729 34.95V41H218.979ZM237.15 41.22C235.933 41.22 234.884 40.9927 234.004 40.538C233.124 40.0833 232.442 39.438 231.958 38.602C231.489 37.766 231.254 36.776 231.254 35.632C231.254 34.5173 231.481 33.542 231.936 32.706C232.405 31.87 233.043 31.2173 233.85 30.748C234.671 30.264 235.603 30.022 236.644 30.022C238.169 30.022 239.372 30.506 240.252 31.474C241.147 32.442 241.594 33.762 241.594 35.434V36.248H233.894C234.099 38.1693 235.199 39.13 237.194 39.13C237.795 39.13 238.397 39.042 238.998 38.866C239.599 38.6753 240.149 38.382 240.648 37.986L241.418 39.834C240.905 40.2593 240.259 40.5967 239.482 40.846C238.705 41.0953 237.927 41.22 237.15 41.22ZM236.754 31.892C235.947 31.892 235.295 32.1413 234.796 32.64C234.297 33.1387 233.997 33.8133 233.894 34.664H239.306C239.247 33.7693 238.998 33.0873 238.558 32.618C238.133 32.134 237.531 31.892 236.754 31.892ZM243.772 41V30.242H246.456V32.134C246.984 30.858 248.113 30.154 249.844 30.022L250.68 29.956L250.856 32.288L249.272 32.442C247.468 32.618 246.566 33.542 246.566 35.214V41H243.772ZM257.517 41.22C256.3 41.22 255.251 40.9927 254.371 40.538C253.491 40.0833 252.809 39.438 252.325 38.602C251.856 37.766 251.621 36.776 251.621 35.632C251.621 34.5173 251.848 33.542 252.303 32.706C252.772 31.87 253.41 31.2173 254.217 30.748C255.038 30.264 255.97 30.022 257.011 30.022C258.536 30.022 259.739 30.506 260.619 31.474C261.514 32.442 261.961 33.762 261.961 35.434V36.248H254.261C254.466 38.1693 255.566 39.13 257.561 39.13C258.162 39.13 258.764 39.042 259.365 38.866C259.966 38.6753 260.516 38.382 261.015 37.986L261.785 39.834C261.272 40.2593 260.626 40.5967 259.849 40.846C259.072 41.0953 258.294 41.22 257.517 41.22ZM257.121 31.892C256.314 31.892 255.662 32.1413 255.163 32.64C254.664 33.1387 254.364 33.8133 254.261 34.664H259.673C259.614 33.7693 259.365 33.0873 258.925 32.618C258.5 32.134 257.898 31.892 257.121 31.892Z" fill="black"/>
</svg>
