<svg width="15" height="18" viewBox="0 0 15 18" fill="none" xmlns="http://www.w3.org/2000/svg">
<path d="M9.16667 12.5V17.5H7.5V12.5H5L8.33333 8.33333L11.6667 12.5H9.16667ZM10.8333 14.1667H13.3333V11.6667H12.6667L8.33333 6.25L3.8725 11.6667H2.91667C2.58515 11.6667 2.2672 11.7984 2.03278 12.0328C1.79836 12.2672 1.66667 12.5851 1.66667 12.9167C1.66667 13.2482 1.79836 13.5661 2.03278 13.8005C2.2672 14.035 2.58515 14.1667 2.91667 14.1667H5.83333V15.8333H2.91667C2.14312 15.8333 1.40125 15.526 0.854272 14.9791C0.307291 14.4321 0 13.6902 0 12.9167V2.5C0 1.83696 0.263392 1.20107 0.732233 0.732233C1.20107 0.263392 1.83696 0 2.5 0H14.1667C14.3877 0 14.5996 0.0877973 14.7559 0.244078C14.9122 0.400358 15 0.61232 15 0.833333V15C15 15.221 14.9122 15.433 14.7559 15.5893C14.5996 15.7455 14.3877 15.8333 14.1667 15.8333H10.8333V14.1667ZM3.33333 2.5V4.16667H5V2.5H3.33333ZM3.33333 5V6.66667H5V5H3.33333Z" fill="white"/>
</svg>
