<svg width="14" height="17" viewBox="0 0 14 17" fill="none" xmlns="http://www.w3.org/2000/svg">
<path d="M6.08795 9.89292V15.9809H0C0 14.3662 0.641407 12.8177 1.78312 11.676C2.92483 10.5343 4.47332 9.89292 6.08795 9.89292ZM6.08795 9.13192C3.56526 9.13192 1.52199 7.08866 1.52199 4.56596C1.52199 2.04327 3.56526 0 6.08795 0C8.61064 0 10.6539 2.04327 10.6539 4.56596C10.6539 7.08866 8.61064 9.13192 6.08795 9.13192ZM8.06273 13.5548C7.96624 13.1488 7.96624 12.7258 8.06273 12.3197L7.30782 11.8837L8.06882 10.5656L8.82372 11.0017C9.12672 10.7147 9.49299 10.503 9.89292 10.3838V9.51242H11.4149V10.3838C11.8198 10.504 12.185 10.7186 12.4841 11.0017L13.239 10.5656L14 11.8837L13.2451 12.3197C13.3415 12.7255 13.3415 13.1483 13.2451 13.5541L14 13.9901L13.239 15.3081L12.4841 14.8721C12.1811 15.1591 11.8148 15.3708 11.4149 15.49V16.3614H9.89292V15.49C9.49299 15.3708 9.12672 15.1591 8.82372 14.8721L8.06882 15.3081L7.30782 13.9901L8.06273 13.5548ZM10.6539 12.1759C10.4521 12.1759 10.2585 12.2561 10.1158 12.3988C9.97309 12.5415 9.89292 12.7351 9.89292 12.9369C9.89292 13.1387 9.97309 13.3323 10.1158 13.475C10.2585 13.6177 10.4521 13.6979 10.6539 13.6979C10.8557 13.6979 11.0493 13.6177 11.192 13.475C11.3347 13.3323 11.4149 13.1387 11.4149 12.9369C11.4149 12.7351 11.3347 12.5415 11.192 12.3988C11.0493 12.2561 10.8557 12.1759 10.6539 12.1759Z" fill="#939393"/>
</svg>
