<svg width="15" height="15" viewBox="0 0 15 15" fill="none" xmlns="http://www.w3.org/2000/svg">
<path d="M7.5 15C3.35775 15 0 11.6423 0 7.5C0 3.35775 3.35775 0 7.5 0C11.6423 0 15 3.35775 15 7.5C15 11.6423 11.6423 15 7.5 15ZM4.875 9V10.5H6.75V12H8.25V10.5H9C9.49728 10.5 9.97419 10.3025 10.3258 9.95082C10.6775 9.59919 10.875 9.12228 10.875 8.625C10.875 8.12772 10.6775 7.65081 10.3258 7.29917C9.97419 6.94754 9.49728 6.75 9 6.75H6C5.90054 6.75 5.80516 6.71049 5.73483 6.64017C5.66451 6.56984 5.625 6.47446 5.625 6.375C5.625 6.27554 5.66451 6.18016 5.73483 6.10983C5.80516 6.03951 5.90054 6 6 6H10.125V4.5H8.25V3H6.75V4.5H6C5.50272 4.5 5.02581 4.69754 4.67417 5.04917C4.32254 5.40081 4.125 5.87772 4.125 6.375C4.125 6.87228 4.32254 7.34919 4.67417 7.70083C5.02581 8.05246 5.50272 8.25 6 8.25H9C9.09946 8.25 9.19484 8.28951 9.26517 8.35983C9.33549 8.43016 9.375 8.52554 9.375 8.625C9.375 8.72446 9.33549 8.81984 9.26517 8.89017C9.19484 8.96049 9.09946 9 9 9H4.875Z" fill="#059377"/>
</svg>
